<svg width="23" height="25" viewBox="0 0 23 25" fill="none" xmlns="http://www.w3.org/2000/svg">
<path d="M0.997209 0.122564C0.577332 0.311509 0.230933 0.710392 0.104969 1.14077C0.0419878 1.34021 0 2.24295 0 3.14568V4.8042H11.3997H22.7994L22.7574 2.92525C22.7259 0.867846 22.6944 0.762877 22.0016 0.248527C21.7182 0.0280914 21.6342 0.0280914 11.5151 0.00709724C3.17008 -0.0138965 1.25963 0.00709724 0.997209 0.122564ZM12.2919 1.53965C12.6593 1.90704 12.7013 2.00152 12.7013 2.47388C12.7013 2.88326 12.6383 3.0722 12.4389 3.32413C11.8825 3.98544 10.9063 3.98544 10.35 3.32413C10.14 3.0722 10.0771 2.89376 10.0771 2.47388C10.0771 2.00152 10.1191 1.90704 10.4864 1.53965C10.8433 1.18275 10.9483 1.13027 11.3892 1.13027C11.8301 1.13027 11.935 1.18275 12.2919 1.53965ZM5.67884 1.74959C6.11972 2.19046 6.09872 2.71531 5.62636 3.18767C5.22748 3.58655 4.89157 3.63904 4.40871 3.38711C3.45349 2.89376 3.85238 1.44518 4.93356 1.44518C5.27996 1.44518 5.43742 1.50816 5.67884 1.74959ZM18.5901 1.74959C19.0939 2.26394 18.989 3.06171 18.3696 3.38711C17.8868 3.63904 17.5509 3.58655 17.152 3.18767C16.6796 2.71531 16.6586 2.19046 17.0995 1.74959C17.3409 1.50816 17.4984 1.44518 17.8448 1.44518C18.1912 1.44518 18.3487 1.50816 18.5901 1.74959Z" fill="white"/>
<path d="M9.25805 7.17652L9.28954 9.02398L9.58346 9.27591C9.74091 9.41237 9.97185 9.52783 10.0873 9.52783C10.2763 9.52783 10.2868 9.43336 10.2868 7.42844V5.32906H9.75141H9.22656L9.25805 7.17652Z" fill="white"/>
<path d="M10.707 7.42844V9.52783H11.3893H12.0716V7.42844V5.32906H11.3893H10.707V7.42844Z" fill="white"/>
<path d="M12.4902 7.42844C12.4902 9.41237 12.5007 9.52783 12.6897 9.52783C12.7946 9.52783 13.0046 9.43336 13.162 9.3074L13.435 9.09746V7.20801V5.32906H12.9626H12.4902V7.42844Z" fill="white"/>
<path d="M0.0209939 12.2778L0.0524847 19.1323H1.41709H2.78169L2.81318 12.2778L2.83417 5.43382H1.41709H0L0.0209939 12.2778Z" fill="white"/>
<path d="M19.9453 12.3098V19.1958L21.3414 19.1643L22.727 19.1328L22.7585 12.2783L22.7795 5.43431H21.3624H19.9453V12.3098Z" fill="white"/>
<path d="M3.46484 13.7266V19.1851H5.09187H6.7189V18.7127V18.2403H11.2851H15.8512V18.7127V19.1851L17.5622 19.1641L19.2627 19.1326L19.2942 13.6952L19.3152 8.26824H16.586H13.8568V8.68812C13.8568 9.46489 13.3005 9.94775 12.3872 9.94775H11.9674V10.7245C11.9674 11.5958 11.8309 11.8372 11.348 11.8372C10.8967 11.8372 10.8127 11.6588 10.8127 10.7665V9.94775H10.3193C9.4586 9.94775 8.81828 9.34943 8.81828 8.53066V8.26824H6.14156H3.46484V13.7266ZM13.8358 15.3222L13.8043 17.1382H11.2851H8.7658L8.73431 15.3222L8.71331 13.5167H11.2851H13.8568L13.8358 15.3222Z" fill="white"/>
<path d="M0 20.7806C0 21.316 0.0524847 21.9353 0.104969 22.1452C0.230933 22.5966 0.797767 23.1215 1.24914 23.2264C1.56404 23.2894 1.57454 23.3209 1.57454 23.8143V24.3286H2.49827H3.4325L4.03083 23.8038L4.62915 23.2789H11.3892H18.1492L18.7475 23.8038L19.3459 24.3286H20.2801H21.2038V23.8143C21.2038 23.3209 21.2143 23.2894 21.5292 23.2264C21.9806 23.1215 22.5474 22.5966 22.6734 22.1452C22.7259 21.9353 22.7784 21.316 22.7784 20.7806V19.8149H11.3892H0V20.7806Z" fill="white"/>
</svg>
