<svg width="30" height="30" viewBox="0 0 30 30" fill="none" xmlns="http://www.w3.org/2000/svg">
<g clip-path="url(#clip0_1_1371)">
<path d="M15.0105 6.91495C15.0631 6.1874 15.3034 5.4859 15.7079 4.87893C16.1125 4.27196 16.6675 3.78026 17.3188 3.45183C17.9702 3.12339 18.6955 2.96945 19.4241 3.00502C20.1527 3.04059 20.8596 3.26447 21.4758 3.65479C21.5462 3.70089 21.603 3.76511 21.64 3.84071C21.6771 3.91631 21.6931 4.00049 21.6864 4.08442C21.6797 4.16835 21.6505 4.24891 21.6019 4.31766C21.5533 4.38641 21.487 4.44079 21.4102 4.4751C20.3389 4.95706 19.4296 5.73802 18.7914 6.7242C18.1532 7.71037 17.8133 8.85982 17.8125 10.0345C17.8125 10.1716 17.8125 10.3087 17.8266 10.4435C17.833 10.5286 17.8161 10.614 17.7776 10.6902C17.7391 10.7665 17.6805 10.8308 17.6081 10.8761C17.5357 10.9215 17.4523 10.9462 17.3669 10.9476C17.2815 10.949 17.1973 10.927 17.1234 10.8841C16.4328 10.4891 15.868 9.90678 15.4941 9.20447C15.1203 8.50216 14.9526 7.70845 15.0105 6.91495ZM28.125 19.0122C28.1267 19.5479 27.9783 20.0734 27.6966 20.529C27.4149 20.9847 27.0112 21.3524 26.5313 21.5903L26.4797 21.6138L21.9293 23.5521C21.8843 23.5719 21.8377 23.5876 21.7898 23.5989L14.2898 25.4739C14.2156 25.493 14.1392 25.5029 14.0625 25.5032H1.875C1.37772 25.5032 0.900806 25.3057 0.549175 24.9541C0.197544 24.6024 0 24.1255 0 23.6282V18.9407C0 18.4434 0.197544 17.9665 0.549175 17.6149C0.900806 17.2633 1.37772 17.0657 1.875 17.0657H5.23711L7.88789 14.4138C8.23548 14.0646 8.6488 13.7878 9.10398 13.5994C9.55917 13.4109 10.0472 13.3145 10.5398 13.3157H16.4063C16.9015 13.3157 17.3902 13.4277 17.836 13.6434C18.2817 13.8591 18.6729 14.173 18.9801 14.5613C19.2873 14.9497 19.5026 15.4026 19.6099 15.8861C19.7172 16.3695 19.7137 16.871 19.5996 17.3528L24.5027 16.2255C24.9296 16.1125 25.3767 16.0989 25.8096 16.186C26.2425 16.273 26.6496 16.4583 26.9996 16.7276C27.3495 16.9968 27.633 17.3428 27.8281 17.7389C28.0233 18.135 28.1248 18.5707 28.125 19.0122ZM26.25 19.0122C26.2499 18.8572 26.214 18.7043 26.1452 18.5654C26.0764 18.4265 25.9766 18.3053 25.8534 18.2112C25.7302 18.1172 25.5869 18.0527 25.4348 18.023C25.2827 17.9932 25.1257 17.9989 24.9762 18.0396L24.9398 18.0489L17.0883 19.8548C17.0194 19.8702 16.9491 19.878 16.8785 19.8782H13.125C12.8764 19.8782 12.6379 19.7795 12.4621 19.6036C12.2863 19.4278 12.1875 19.1894 12.1875 18.9407C12.1875 18.6921 12.2863 18.4536 12.4621 18.2778C12.6379 18.102 12.8764 18.0032 13.125 18.0032H16.4063C16.7792 18.0032 17.1369 17.8551 17.4006 17.5913C17.6643 17.3276 17.8125 16.9699 17.8125 16.597C17.8125 16.224 17.6643 15.8663 17.4006 15.6026C17.1369 15.3389 16.7792 15.1907 16.4063 15.1907H10.5398C10.2935 15.1899 10.0495 15.2381 9.82197 15.3325C9.59444 15.4268 9.38793 15.5655 9.21445 15.7403L6.5625 18.3911V23.6282H13.9453L21.2613 21.7989L25.7145 19.9028C25.8765 19.8174 26.0121 19.6893 26.1066 19.5323C26.201 19.3753 26.2506 19.1954 26.25 19.0122ZM19.6875 10.0345C19.6875 10.8689 19.9349 11.6845 20.3985 12.3783C20.8621 13.0721 21.5209 13.6128 22.2918 13.9321C23.0627 14.2514 23.9109 14.3349 24.7293 14.1722C25.5476 14.0094 26.2994 13.6076 26.8894 13.0176C27.4794 12.4276 27.8812 11.6759 28.0439 10.8575C28.2067 10.0392 28.1232 9.19091 27.8039 8.42003C27.4846 7.64916 26.9438 6.99028 26.2501 6.52671C25.5563 6.06315 24.7406 5.81573 23.9063 5.81573C22.7874 5.81573 21.7143 6.2602 20.9231 7.05137C20.132 7.84254 19.6875 8.91559 19.6875 10.0345Z" fill="white"/>
</g>
<defs>
<clipPath id="clip0_1_1371">
<rect width="30" height="30" fill="white"/>
</clipPath>
</defs>
</svg>
