<svg width="40" height="40" viewBox="0 0 40 40" fill="none" xmlns="http://www.w3.org/2000/svg">
<path d="M10.0684 20.2785V17.8513C10.0684 17.5294 9.94051 17.2208 9.7129 16.9932C9.48529 16.7656 9.17659 16.6377 8.8547 16.6377H6.42735C5.78358 16.6377 5.16617 16.8934 4.71095 17.3486C4.25574 17.8038 4 18.4212 4 19.0649V23.9194C4 24.5631 4.25574 25.1805 4.71095 25.6357C5.16617 26.0909 5.78358 26.3466 6.42735 26.3466H8.8547C9.17659 26.3466 9.48529 26.2188 9.7129 25.9912C9.94051 25.7636 10.0684 25.4549 10.0684 25.133V20.2785Z" fill="white"/>
<path d="M23.7438 35.1669C24.3128 34.5979 24.6325 33.8262 24.6325 33.0215C24.6325 32.2168 24.3128 31.4451 23.7438 30.8761C23.1748 30.3071 22.403 29.9875 21.5983 29.9875H17.9573C17.1525 29.9875 16.3808 30.3071 15.8118 30.8761C15.2428 31.4451 14.9231 32.2168 14.9231 33.0215C14.9231 33.8262 15.2428 34.5979 15.8118 35.1669C16.3808 35.7359 17.1525 36.0556 17.9573 36.0556H21.5983C22.403 36.0556 23.1748 35.7359 23.7438 35.1669Z" fill="white"/>
<path d="M29.4872 17.8513V20.2785V22.7058V25.133C29.4872 25.4549 29.615 25.7636 29.8427 25.9912C30.0703 26.2188 30.379 26.3466 30.7009 26.3466H33.1282C33.772 26.3466 34.3894 26.0909 34.8446 25.6357C35.2998 25.1805 35.5556 24.5631 35.5556 23.9194V19.0649C35.5556 18.4212 35.2998 17.8038 34.8446 17.3486C34.3894 16.8934 33.772 16.6377 33.1282 16.6377H30.7009C30.379 16.6377 30.0703 16.7656 29.8427 16.9932C29.615 17.2208 29.4872 17.5294 29.4872 17.8513Z" fill="white"/>
<path d="M10.0684 20.2785V13.8949C10.0873 12.6401 10.3537 11.4014 10.8523 10.2497C11.3508 9.09803 12.0717 8.05604 12.9737 7.18343C13.8756 6.31083 14.9409 5.62477 16.1085 5.16456C17.2761 4.70435 18.523 4.47904 19.7778 4.50153C21.0326 4.47904 22.2795 4.70435 23.4471 5.16456C24.6146 5.62477 25.6799 6.31083 26.5819 7.18343C27.4838 8.05604 28.2048 9.09803 28.7033 10.2497C29.2018 11.4014 29.4682 12.6401 29.4872 13.8949V20.2785M10.0684 20.2785V17.8513M10.0684 20.2785V25.133M29.4872 20.2785V17.8513M29.4872 20.2785V22.7058M10.0684 17.8513C10.0684 17.5294 9.94051 17.2208 9.7129 16.9932C9.48529 16.7656 9.17659 16.6377 8.8547 16.6377H6.42735C5.78358 16.6377 5.16617 16.8934 4.71095 17.3486C4.25574 17.8038 4 18.4212 4 19.0649V23.9194C4 24.5631 4.25574 25.1805 4.71095 25.6357C5.16617 26.0909 5.78358 26.3466 6.42735 26.3466H8.8547C9.17659 26.3466 9.48529 26.2188 9.7129 25.9912C9.94051 25.7636 10.0684 25.4549 10.0684 25.133M10.0684 17.8513V25.133M29.4872 25.133C29.4872 25.4549 29.615 25.7636 29.8427 25.9912C30.0703 26.2188 30.379 26.3466 30.7009 26.3466H33.1282C33.772 26.3466 34.3894 26.0909 34.8446 25.6357C35.2998 25.1805 35.5556 24.5631 35.5556 23.9194V19.0649C35.5556 18.4212 35.2998 17.8038 34.8446 17.3486C34.3894 16.8934 33.772 16.6377 33.1282 16.6377H30.7009C30.379 16.6377 30.0703 16.7656 29.8427 16.9932C29.615 17.2208 29.4872 17.5294 29.4872 17.8513M29.4872 25.133V17.8513M29.4872 25.133V22.7058M24.6325 33.0215C25.92 33.0215 27.1548 32.5101 28.0653 31.5997C28.9757 30.6893 29.4872 29.4545 29.4872 28.1671V22.7058M24.6325 33.0215C24.6325 33.8262 24.3128 34.5979 23.7438 35.1669C23.1748 35.7359 22.403 36.0556 21.5983 36.0556H17.9573C17.1525 36.0556 16.3808 35.7359 15.8118 35.1669C15.2428 34.5979 14.9231 33.8262 14.9231 33.0215C14.9231 32.2168 15.2428 31.4451 15.8118 30.8761C16.3808 30.3071 17.1525 29.9875 17.9573 29.9875H21.5983C22.403 29.9875 23.1748 30.3071 23.7438 30.8761C24.3128 31.4451 24.6325 32.2168 24.6325 33.0215Z" stroke="white" stroke-width="1.5" stroke-linecap="round" stroke-linejoin="round"/>
</svg>
