<svg width="40" height="40" viewBox="0 0 40 40" fill="none" xmlns="http://www.w3.org/2000/svg">
<g clip-path="url(#clip0_1_1209)">
<path d="M16 13.5H23.5" stroke="white" stroke-width="1.5" stroke-linecap="round" stroke-linejoin="round"/>
<path d="M36.1234 24.117L29.3031 8.59826C28.5999 7.89505 27.6461 7.5 26.6516 7.5C25.657 7.5 24.7033 7.89505 24 8.59826V26.2545" fill="white" fill-opacity="0.1"/>
<path d="M36.1234 24.117L29.3031 8.59826C28.5999 7.89505 27.6461 7.5 26.6516 7.5C25.657 7.5 24.7033 7.89505 24 8.59826V26.2545" stroke="white" stroke-width="1.5" stroke-linecap="round" stroke-linejoin="round"/>
<path d="M16.1234 26.2545V8.59826C15.4202 7.89505 14.4664 7.5 13.4719 7.5C12.4774 7.5 11.5236 7.89505 10.8203 8.59826L4 24.117" fill="white" fill-opacity="0.1"/>
<path d="M16.1234 26.2545V8.59826C15.4202 7.89505 14.4664 7.5 13.4719 7.5C12.4774 7.5 11.5236 7.89505 10.8203 8.59826L4 24.117" stroke="white" stroke-width="1.5" stroke-linecap="round" stroke-linejoin="round"/>
<path d="M10.25 33C13.7018 33 16.5 30.2018 16.5 26.75C16.5 23.2982 13.7018 20.5 10.25 20.5C6.79822 20.5 4 23.2982 4 26.75C4 30.2018 6.79822 33 10.25 33Z" fill="white" fill-opacity="0.1" stroke="white" stroke-width="1.5" stroke-linecap="round" stroke-linejoin="round"/>
<path d="M30.25 33C33.7018 33 36.5 30.2018 36.5 26.75C36.5 23.2982 33.7018 20.5 30.25 20.5C26.7982 20.5 24 23.2982 24 26.75C24 30.2018 26.7982 33 30.25 33Z" fill="white" fill-opacity="0.1" stroke="white" stroke-width="1.5" stroke-linecap="round" stroke-linejoin="round"/>
<circle cx="9.77094" cy="26.2709" r="5.77094" fill="white"/>
<circle cx="29.7709" cy="26.2709" r="5.77094" fill="white"/>
</g>
<defs>
<clipPath id="clip0_1_1209">
<rect width="40" height="40" fill="white"/>
</clipPath>
</defs>
</svg>
