<svg width="40" height="40" viewBox="0 0 40 40" fill="none" xmlns="http://www.w3.org/2000/svg">
<path d="M17.8 2.8875L9.48333 6.02083C7.56667 6.7375 6 9.00417 6 11.0375V23.4208C6 25.3875 7.3 27.9708 8.88333 29.1542L16.05 34.5042C18.4 36.2708 22.2667 36.2708 24.6167 34.5042L31.7833 29.1542C33.3667 27.9708 34.6667 25.3875 34.6667 23.4208V11.0375C34.6667 8.9875 33.1 6.72083 31.1833 6.00417L22.8667 2.8875C21.45 2.37083 19.1833 2.37083 17.8 2.8875Z" fill="white" stroke="white" stroke-width="1.5" stroke-linecap="round" stroke-linejoin="round"/>
<path d="M20.3333 20.1667C22.1743 20.1667 23.6667 18.6743 23.6667 16.8333C23.6667 14.9924 22.1743 13.5 20.3333 13.5C18.4924 13.5 17 14.9924 17 16.8333C17 18.6743 18.4924 20.1667 20.3333 20.1667Z" stroke="#5CB85D" stroke-width="1.5" stroke-miterlimit="10" stroke-linecap="round" stroke-linejoin="round"/>
<path d="M20 20.5V25.5" stroke="#5CB85D" stroke-width="1.5" stroke-miterlimit="10" stroke-linecap="round" stroke-linejoin="round"/>
</svg>
