<svg width="40" height="40" viewBox="0 0 40 40" fill="none" xmlns="http://www.w3.org/2000/svg">
<path d="M20.6667 17.7833C20.5 17.7667 20.3 17.7667 20.1167 17.7833C16.15 17.65 13 14.4 13 10.4C13 6.31667 16.3 3 20.4 3C24.4833 3 27.8 6.31667 27.8 10.4C27.7833 14.4 24.6333 17.65 20.6667 17.7833Z" fill="white" stroke="white" stroke-width="1.5" stroke-linecap="round" stroke-linejoin="round"/>
<path d="M12.025 24.2875C7.99167 26.9875 7.99167 31.3875 12.025 34.0708C16.6083 37.1375 24.125 37.1375 28.7083 34.0708C32.7417 31.3708 32.7417 26.9708 28.7083 24.2875C24.1417 21.2375 16.625 21.2375 12.025 24.2875Z" fill="white" stroke="white" stroke-width="1.5" stroke-linecap="round" stroke-linejoin="round"/>
<path d="M33.0382 4L33.2622 4.60503C33.5556 5.39844 33.7023 5.79514 33.9913 6.0842C34.2812 6.37413 34.678 6.52083 35.4714 6.81424L36.0764 7.03819L35.4714 7.26215C34.678 7.55556 34.2813 7.70226 33.9922 7.99132C33.7023 8.28125 33.5556 8.67795 33.2622 9.47135L33.0382 10.0764L32.8142 9.47135C32.5208 8.67795 32.3741 8.28125 32.0851 7.99219C31.7951 7.70226 31.3984 7.55556 30.605 7.26215L30 7.03819L30.605 6.81424C31.3984 6.52083 31.7951 6.37413 32.0842 6.08507C32.3741 5.79514 32.5208 5.39844 32.8142 4.60503L33.0382 4Z" fill="white" fill-opacity="0.1" stroke="white" stroke-width="1.5" stroke-linecap="round" stroke-linejoin="round"/>
</svg>
