<svg width="24" height="24" viewBox="0 0 24 24" fill="none" xmlns="http://www.w3.org/2000/svg">
<g clip-path="url(#clip0_1_1126)">
<path d="M4.6525 18.6444C3.79 17.7819 4.36188 15.9697 3.92313 14.9084C3.4675 13.8125 1.79688 12.9219 1.79688 11.75C1.79688 10.5781 3.4675 9.6875 3.92313 8.59156C4.36188 7.53125 3.79 5.71812 4.6525 4.85562C5.515 3.99312 7.32812 4.565 8.38844 4.12625C9.48906 3.67062 10.375 2 11.5469 2C12.7188 2 13.6094 3.67062 14.7053 4.12625C15.7666 4.565 17.5787 3.99312 18.4412 4.85562C19.3037 5.71812 18.7319 7.53031 19.1706 8.59156C19.6263 9.69219 21.2969 10.5781 21.2969 11.75C21.2969 12.9219 19.6263 13.8125 19.1706 14.9084C18.7319 15.9697 19.3037 17.7819 18.4412 18.6444C17.5787 19.5069 15.7666 18.935 14.7053 19.3738C13.6094 19.8294 12.7188 21.5 11.5469 21.5C10.375 21.5 9.48437 19.8294 8.38844 19.3738C7.32812 18.935 5.515 19.5069 4.6525 18.6444Z" fill="white"/>
<path d="M9.29688 11C10.1253 11 10.7969 10.3284 10.7969 9.5C10.7969 8.67157 10.1253 8 9.29688 8C8.46845 8 7.79688 8.67157 7.79688 9.5C7.79688 10.3284 8.46845 11 9.29688 11Z" fill="#3381BD"/>
<path d="M15.2969 17C16.1253 17 16.7969 16.3284 16.7969 15.5C16.7969 14.6716 16.1253 14 15.2969 14C14.4684 14 13.7969 14.6716 13.7969 15.5C13.7969 16.3284 14.4684 17 15.2969 17Z" fill="#3381BD"/>
<path d="M7.79688 15.5L15.2969 8" stroke="#3381BD" stroke-width="1.5" stroke-linecap="round" stroke-linejoin="round"/>
</g>
<defs>
<clipPath id="clip0_1_1126">
<rect width="24" height="24" fill="white"/>
</clipPath>
</defs>
</svg>
