<svg width="283" height="348" viewBox="0 0 283 348" fill="none" xmlns="http://www.w3.org/2000/svg">
<path d="M2.74589 286.413C-3.93941 247.021 1.33423 200.456 21.3016 165.429C21.6517 164.815 22.1274 164.324 22.7495 164C24.5093 164.886 30.1125 181.756 31.7749 185.442C44.0976 212.761 65.2891 233.227 86.3446 253.627C105.175 271.872 116.928 296.006 125.078 320.69C129.203 331.655 129.64 343.139 131.248 354.499C132.934 366.408 133.443 377.524 133.046 389.591C132.676 392.715 135.001 403.864 129.868 404.185C116.955 404.986 96.9676 402.113 84.7161 397.782C63.4102 390.245 35.533 368.918 25.7724 348.593C16.6292 336.28 7.92215 313.113 4.78533 298.003C4.05495 294.485 3.77607 290.082 2.84207 286.748L2.74589 286.413Z" fill="#0161AD"/>
<path d="M258.721 165C259.17 165.065 260.592 165.29 260.868 165.521C266.243 170.012 271.031 185.26 272.609 191.467C276.276 205.888 280.359 220.116 282.22 234.681C283.547 243.446 282.534 252.588 282.679 261.215C282.901 274.477 279.854 283.585 277.186 296.126C273.511 313.396 269.387 326.029 260.776 341.389C248.644 362.675 230.945 380.182 209.618 391.989C206.237 393.822 203.199 395.581 199.617 396.954C190.828 400.331 181.632 400.859 172.704 403.362C165.446 404.552 156.614 404.524 149.306 404.511C149.255 389.978 148.362 368.546 149.886 354.395C152.766 325.697 162.842 298.215 179.164 274.541C181.101 271.741 184.52 266.372 186.702 264.056C203.519 246.148 222.048 230.011 236.524 209.971C246.424 196.265 252.867 180.768 258.721 165Z" fill="#0161AD"/>
<path d="M144.04 0C145.728 1.20955 152.846 10.725 154.604 12.9577C159.911 20.5331 166.187 31.7985 171.379 39.766C174.054 43.8696 180.156 56.5169 182.117 61.4461C188.879 78.4517 189.315 103.495 182.676 120.608C176.329 134.793 158.711 149.523 147.14 159.697C146.386 160.359 144.136 161.917 142.95 161.642C129.07 156.198 115.751 141.688 107.098 129.559C96.5943 114.839 95.1557 94.5013 98.8209 77.2937C100.474 69.5363 103.482 61.5066 106.073 54.0263C107.644 50.0507 111.23 46.0705 112.98 42.3566C116.678 34.5097 120.651 29.4038 125.797 22.6186C130.543 16.3616 137.458 4.28766 144.04 0Z" fill="#0161AD"/>
<path d="M67.7527 99C69.2079 101.865 70.2944 105.189 71.4899 108.243C79.9893 129.957 97.7676 144.129 112.275 161.617C129.027 181.81 136.539 212.308 137.059 238.277C137.069 244.357 134.439 263.179 133.456 269.15C132.875 271.777 130.967 283.769 130.572 284.779C125.337 282.818 118.001 265.901 114.467 261.566C107.482 252.998 102.824 245.609 94.0493 238.801C88.599 234.572 82.238 227.88 76.7648 223.404C64.1197 213.009 50.265 199.454 46.8063 182.714C43.1994 164.958 45.2308 146.496 50.7994 129.376C51.7145 126.562 58.059 112.639 59.4831 110.903C61.5958 108.034 62.1467 104.071 64.8899 101.611C65.8501 100.75 66.7849 99.8601 67.7527 99Z" fill="#0161AD"/>
<path d="M216.12 99C216.39 99.0845 216.34 99.0605 216.652 99.2068C222.072 101.747 234.675 129.915 237.084 136.973C239.962 145.402 240.722 154.123 240.753 162.983C240.803 177.575 238.032 186.519 230.293 198.786C226.388 204.977 222.212 210.318 216.912 215.38C211.166 220.868 204.744 225.695 198.874 231.053C189.649 239.377 181.082 248.415 173.251 258.085C169.21 263.036 164.686 268.118 161.933 273.858C160.658 275.974 155.324 285.151 153.722 285.392C152.556 284.301 151.992 282.317 151.773 280.714C147.72 250.723 146.942 216.744 157.567 187.961C169.211 156.42 200.836 138.222 214.759 107.95C215.5 106.338 215.89 101.077 216.12 99Z" fill="#0161AD"/>
</svg>
