<svg width="24" height="24" viewBox="0 0 24 24" fill="none" xmlns="http://www.w3.org/2000/svg">
<g clip-path="url(#clip0_1_1112)">
<path d="M19.1484 4H4.14844C3.73422 4 3.39844 4.33579 3.39844 4.75V19.75C3.39844 20.1642 3.73422 20.5 4.14844 20.5H19.1484C19.5627 20.5 19.8984 20.1642 19.8984 19.75V4.75C19.8984 4.33579 19.5627 4 19.1484 4Z" fill="white"/>
<path d="M16.3984 2V5" stroke="white" stroke-width="1.5" stroke-linecap="round" stroke-linejoin="round"/>
<path d="M7.39844 2V5" stroke="white" stroke-width="1.5" stroke-linecap="round" stroke-linejoin="round"/>
<path d="M3.39844 8H19.8984" stroke="#3385C7" stroke-width="1.5" stroke-linecap="round" stroke-linejoin="round"/>
<path d="M11.5234 13.25C12.1448 13.25 12.6484 12.7463 12.6484 12.125C12.6484 11.5037 12.1448 11 11.5234 11C10.9021 11 10.3984 11.5037 10.3984 12.125C10.3984 12.7463 10.9021 13.25 11.5234 13.25Z" fill="#3385C7"/>
<path d="M16.5234 13.25C17.1448 13.25 17.6484 12.7463 17.6484 12.125C17.6484 11.5037 17.1448 11 16.5234 11C15.9021 11 15.3984 11.5037 15.3984 12.125C15.3984 12.7463 15.9021 13.25 16.5234 13.25Z" fill="#3385C7"/>
<path d="M7.52344 17.25C8.14476 17.25 8.64844 16.7463 8.64844 16.125C8.64844 15.5037 8.14476 15 7.52344 15C6.90212 15 6.39844 15.5037 6.39844 16.125C6.39844 16.7463 6.90212 17.25 7.52344 17.25Z" fill="#3385C7"/>
<path d="M11.5234 17.25C12.1448 17.25 12.6484 16.7463 12.6484 16.125C12.6484 15.5037 12.1448 15 11.5234 15C10.9021 15 10.3984 15.5037 10.3984 16.125C10.3984 16.7463 10.9021 17.25 11.5234 17.25Z" fill="#3385C7"/>
<path d="M16.5234 17.25C17.1448 17.25 17.6484 16.7463 17.6484 16.125C17.6484 15.5037 17.1448 15 16.5234 15C15.9021 15 15.3984 15.5037 15.3984 16.125C15.3984 16.7463 15.9021 17.25 16.5234 17.25Z" fill="#3385C7"/>
</g>
<defs>
<clipPath id="clip0_1_1112">
<rect width="24" height="24" fill="white"/>
</clipPath>
</defs>
</svg>
