<svg width="16" height="16" viewBox="0 0 16 16" fill="none" xmlns="http://www.w3.org/2000/svg">
<g clip-path="url(#clip0_1_498)">
<path d="M14.3173 6.74039L4.15266 2.97256L4.14342 2.96967C3.9798 2.91334 3.80366 2.90406 3.63503 2.94288C3.4664 2.9817 3.31206 3.06708 3.18955 3.18928C3.06704 3.31149 2.98129 3.46563 2.94205 3.63416C2.90281 3.80269 2.91166 3.97886 2.96759 4.14261C2.9683 4.14576 2.96926 4.14886 2.97048 4.15185L6.7412 14.3165C6.80313 14.4977 6.9206 14.6548 7.07691 14.7655C7.23322 14.8762 7.42043 14.9348 7.61195 14.933H7.62928C7.82458 14.9315 8.01423 14.8673 8.17028 14.7499C8.32632 14.6324 8.4405 14.4679 8.49598 14.2807L8.49945 14.2691L9.76136 9.76228L14.2682 8.50037L14.2798 8.4969C14.4656 8.43971 14.6287 8.32535 14.7459 8.1701C14.863 8.01485 14.9282 7.82661 14.9321 7.63218C14.9361 7.43774 14.8787 7.247 14.768 7.0871C14.6573 6.9272 14.499 6.80628 14.3156 6.74155L14.3173 6.74039ZM9.26214 8.94123C9.18581 8.96266 9.11628 9.00336 9.06022 9.05942C9.00417 9.11547 8.96347 9.18501 8.94204 9.26133L7.6131 14.0085L7.60964 13.9987L3.84007 3.83926L13.9989 7.60767L14.0082 7.61114L9.26214 8.94123Z" fill="white"/>
</g>
<defs>
<clipPath id="clip0_1_498">
<rect width="14.7917" height="14.7917" fill="white" transform="translate(0.603516 0.603577)"/>
</clipPath>
</defs>
</svg>
