<svg width="30" height="30" viewBox="0 0 30 30" fill="none" xmlns="http://www.w3.org/2000/svg">
<g clip-path="url(#clip0_1_1379)">
<path d="M21.0625 2H9.8125C9.06658 2 8.35121 2.29632 7.82376 2.82376C7.29632 3.35121 7 4.06658 7 4.8125V25.4375C7 26.1834 7.29632 26.8988 7.82376 27.4262C8.35121 27.9537 9.06658 28.25 9.8125 28.25H21.0625C21.8084 28.25 22.5238 27.9537 23.0512 27.4262C23.5787 26.8988 23.875 26.1834 23.875 25.4375V4.8125C23.875 4.06658 23.5787 3.35121 23.0512 2.82376C22.5238 2.29632 21.8084 2 21.0625 2ZM9.8125 3.875H21.0625C21.3111 3.875 21.5496 3.97377 21.7254 4.14959C21.9012 4.3254 22 4.56386 22 4.8125V5.75H8.875V4.8125C8.875 4.56386 8.97377 4.3254 9.14959 4.14959C9.3254 3.97377 9.56386 3.875 9.8125 3.875ZM21.0625 26.375H9.8125C9.56386 26.375 9.3254 26.2762 9.14959 26.1004C8.97377 25.9246 8.875 25.6861 8.875 25.4375V24.5H22V25.4375C22 25.6861 21.9012 25.9246 21.7254 26.1004C21.5496 26.2762 21.3111 26.375 21.0625 26.375Z" fill="white"/>
</g>
<defs>
<clipPath id="clip0_1_1379">
<rect width="30" height="30" fill="white"/>
</clipPath>
</defs>
</svg>
