<svg width="157" height="157" viewBox="0 0 157 157" fill="none" xmlns="http://www.w3.org/2000/svg">
<path d="M156.492 78.2461C156.492 121.46 121.46 156.492 78.2461 156.492C35.032 156.492 6.45317e-05 121.46 6.88449e-05 78.2461C7.31581e-05 35.032 35.032 5.21696e-05 78.2461 5.53239e-05C121.46 5.84781e-05 156.492 35.032 156.492 78.2461Z" fill="#0971B8"/>
<path d="M145.858 78.2462C145.858 115.588 115.587 145.859 78.2457 145.859C40.9043 145.859 10.633 115.588 10.633 78.2462C10.633 40.9047 40.9043 10.6335 78.2457 10.6335C115.587 10.6335 145.858 40.9047 145.858 78.2462Z" fill="white"/>
<path d="M138.821 78.2461C138.821 111.701 111.701 138.821 78.2461 138.821C44.7914 138.821 17.6709 111.701 17.6709 78.2461C17.6709 44.7914 44.7914 17.6709 78.2461 17.6709C111.701 17.6709 138.821 44.7914 138.821 78.2461Z" fill="#5CB85D"/>
<g clip-path="url(#clip0_5728_511)">
<path d="M111.449 73.8034L104.74 60.3791C104.493 59.885 104.151 59.4444 103.733 59.0825C103.316 58.7207 102.831 58.4445 102.307 58.27C101.783 58.0954 101.229 58.0258 100.678 58.0652C100.127 58.1045 99.5892 58.252 99.0951 58.4993L92.5565 61.7673L78.7825 58.1233C78.429 58.0313 78.0579 58.0313 77.7045 58.1233L63.9305 61.7673L57.3918 58.4993C56.8978 58.252 56.3599 58.1045 55.8088 58.0652C55.2577 58.0258 54.7043 58.0954 54.1801 58.27C53.6559 58.4445 53.1713 58.7207 52.7538 59.0825C52.3364 59.4444 51.9943 59.885 51.7471 60.3791L45.0376 73.8008C44.7903 74.2949 44.6428 74.8328 44.6035 75.3839C44.5641 75.9349 44.6337 76.4884 44.8083 77.0126C44.9828 77.5367 45.2589 78.0214 45.6208 78.4388C45.9827 78.8563 46.4233 79.1984 46.9174 79.4456L54.016 82.9975L68.6051 93.4168C68.8201 93.5697 69.0617 93.6812 69.3176 93.7454L86.144 97.952C86.4964 98.0404 86.8657 98.036 87.2158 97.9392C87.566 97.8425 87.8851 97.6567 88.1422 97.3999L98.6587 86.8834L102.623 82.9186L109.57 79.4456C110.567 78.9464 111.325 78.0716 111.677 77.0136C112.03 75.9556 111.948 74.801 111.449 73.8034ZM97.0181 82.5768L87.9713 75.331C87.566 75.0064 87.055 74.8432 86.5366 74.8728C86.0182 74.9024 85.5291 75.1227 85.1634 75.4913C80.4809 80.208 75.262 79.6112 71.9336 77.5079L83.3019 66.4655H91.6652L98.8191 80.7706L97.0181 82.5768ZM86.0099 93.5824L70.7294 89.7623L57.7941 80.5235L65.1557 65.8004L78.2435 62.3325L80.82 63.0135L68.9889 74.4975L68.9679 74.5212C68.5225 74.9665 68.1829 75.5062 67.974 76.1004C67.7651 76.6946 67.6922 77.3281 67.7609 77.9542C67.8295 78.5802 68.0379 79.1829 68.3705 79.7177C68.7032 80.2525 69.1518 80.7058 69.683 81.0441C75.0885 84.4961 81.6114 83.9361 86.7487 79.7295L94.0183 85.5688L86.0099 93.5824ZM79.2478 102.732C79.1342 103.186 78.872 103.59 78.5029 103.879C78.1337 104.167 77.6788 104.324 77.2102 104.325C77.0374 104.325 76.8653 104.304 76.6976 104.262L65.7314 101.52C65.4752 101.457 65.2334 101.345 65.019 101.191L58.0912 96.2431C57.6652 95.9086 57.3847 95.4227 57.308 94.8866C57.2313 94.3505 57.3643 93.8055 57.6795 93.365C57.9946 92.9245 58.4674 92.6226 58.9996 92.522C59.5317 92.4215 60.0822 92.5301 60.5363 92.8252L67.138 97.5419L77.7177 100.182C78.2587 100.317 78.7239 100.662 79.0108 101.14C79.2977 101.618 79.383 102.191 79.2478 102.732Z" fill="white"/>
</g>
<defs>
<clipPath id="clip0_5728_511">
<rect width="67.3058" height="67.3058" fill="white" transform="translate(44.5938 44.5931)"/>
</clipPath>
</defs>
</svg>
