<svg width="30" height="30" viewBox="0 0 30 30" fill="none" xmlns="http://www.w3.org/2000/svg">
<g clip-path="url(#clip0_1_1395)">
<path d="M7.51395 17.3205C7.51713 17.384 7.50736 17.4475 7.48523 17.5071C7.4631 17.5667 7.42908 17.6212 7.38523 17.6672C7.34138 17.7132 7.28862 17.7499 7.23017 17.7749C7.17171 17.7999 7.10878 17.8128 7.0452 17.8127H1.87489C1.66329 17.813 1.45781 17.7417 1.29185 17.6105C1.1259 17.4792 1.00923 17.2956 0.960828 17.0896C0.930689 16.9486 0.932078 16.8027 0.964897 16.6623C0.997716 16.5219 1.06115 16.3905 1.15067 16.2775C1.97779 15.1806 3.07523 14.317 4.33583 13.7709C3.78238 13.2663 3.35791 12.6364 3.09795 11.934C2.83799 11.2316 2.75012 10.4772 2.8417 9.73383C2.93328 8.9905 3.20164 8.27993 3.62431 7.66164C4.04698 7.04335 4.61164 6.53534 5.27102 6.18016C5.93039 5.82497 6.66528 5.63296 7.41412 5.62019C8.16296 5.60742 8.90396 5.77427 9.57506 6.10677C10.2462 6.43927 10.8278 6.92774 11.2713 7.53126C11.7148 8.13478 12.0072 8.83579 12.1241 9.57557C12.1392 9.67505 12.1214 9.77674 12.0734 9.86516C12.0253 9.95359 11.9498 10.0239 11.8581 10.0654C10.5578 10.6666 9.45653 11.6271 8.68431 12.8337C7.91209 14.0403 7.50112 15.4426 7.49989 16.8752C7.49989 17.0252 7.49989 17.1728 7.51395 17.3205ZM28.8421 16.2764C28.0169 15.1807 26.9219 14.3175 25.664 13.7709C26.2174 13.2663 26.6419 12.6364 26.9018 11.934C27.1618 11.2316 27.2497 10.4772 27.1581 9.73383C27.0665 8.9905 26.7981 8.27993 26.3755 7.66164C25.9528 7.04335 25.3881 6.53534 24.7288 6.18016C24.0694 5.82497 23.3345 5.63296 22.5857 5.62019C21.8368 5.60742 21.0958 5.77427 20.4247 6.10677C19.7536 6.43927 19.172 6.92774 18.7285 7.53126C18.285 8.13478 17.9925 8.83579 17.8757 9.57557C17.8606 9.67505 17.8784 9.77674 17.9264 9.86516C17.9744 9.95359 18.05 10.0239 18.1417 10.0654C19.442 10.6666 20.5433 11.6271 21.3155 12.8337C22.0877 14.0403 22.4987 15.4426 22.4999 16.8752C22.4999 17.0252 22.4999 17.1728 22.4858 17.3205C22.4826 17.384 22.4924 17.4475 22.5146 17.5071C22.5367 17.5667 22.5707 17.6212 22.6146 17.6672C22.6584 17.7132 22.7112 17.7499 22.7696 17.7749C22.8281 17.7999 22.891 17.8128 22.9546 17.8127H28.1249C28.3365 17.813 28.542 17.7417 28.7079 17.6105C28.8739 17.4792 28.9906 17.2956 29.039 17.0896C29.0693 16.9484 29.0679 16.8022 29.0348 16.6615C29.0018 16.5209 28.938 16.3893 28.8479 16.2764H28.8421ZM18.4124 21.3365C19.3458 20.6216 20.0318 19.6322 20.3739 18.5073C20.716 17.3824 20.697 16.1786 20.3196 15.0651C19.9422 13.9516 19.2253 12.9843 18.2698 12.2992C17.3142 11.6141 16.168 11.2457 14.9923 11.2457C13.8165 11.2457 12.6703 11.6141 11.7148 12.2992C10.7592 12.9843 10.0424 13.9516 9.66495 15.0651C9.28753 16.1786 9.26854 17.3824 9.61063 18.5073C9.95272 19.6322 10.6387 20.6216 11.5722 21.3365C9.91575 22.0542 8.53262 23.2833 7.62528 24.8439C7.54299 24.9865 7.49967 25.1481 7.49968 25.3127C7.49969 25.4773 7.54303 25.639 7.62533 25.7815C7.70764 25.924 7.82602 26.0424 7.96857 26.1247C8.11111 26.2069 8.27281 26.2502 8.43739 26.2502H21.5624C21.727 26.2502 21.8887 26.2069 22.0312 26.1247C22.1738 26.0424 22.2921 25.924 22.3744 25.7815C22.4568 25.639 22.5001 25.4773 22.5001 25.3127C22.5001 25.1481 22.4568 24.9865 22.3745 24.8439C21.4652 23.2823 20.0795 22.0531 18.4206 21.3365H18.4124Z" fill="white"/>
</g>
<defs>
<clipPath id="clip0_1_1395">
<rect width="30" height="30" fill="white"/>
</clipPath>
</defs>
</svg>
