<svg width="16" height="16" viewBox="0 0 16 16" fill="none" xmlns="http://www.w3.org/2000/svg">
<g clip-path="url(#clip0_1_503)">
<path d="M10.7728 9.84902C10.4644 9.84892 10.1592 9.91069 9.87514 10.0307C9.59109 10.1507 9.33401 10.3264 9.11912 10.5476L6.45546 8.83556C6.66499 8.29826 6.66499 7.70186 6.45546 7.16456L9.11912 5.45254C9.51922 5.86239 10.0572 6.10907 10.6289 6.14476C11.2005 6.18046 11.7651 6.00262 12.213 5.64573C12.661 5.28884 12.9605 4.77832 13.0535 4.21316C13.1464 3.64799 13.0262 3.06844 12.7162 2.58687C12.4061 2.1053 11.9283 1.75602 11.3753 1.60674C10.8223 1.45746 10.2336 1.51882 9.72334 1.77893C9.21305 2.03903 8.81752 2.47935 8.61343 3.01451C8.40934 3.54967 8.41123 4.14156 8.61874 4.6754L5.95509 6.38742C5.63433 6.05812 5.22266 5.83195 4.7727 5.73783C4.32274 5.6437 3.85493 5.6859 3.42908 5.85902C3.00322 6.03215 2.63867 6.32833 2.38202 6.70972C2.12537 7.0911 1.98828 7.54036 1.98828 8.00006C1.98828 8.45976 2.12537 8.90902 2.38202 9.2904C2.63867 9.67179 3.00322 9.96797 3.42908 10.1411C3.85493 10.3142 4.32274 10.3564 4.7727 10.2623C5.22266 10.1682 5.63433 9.942 5.95509 9.6127L8.61874 11.3247C8.4403 11.785 8.41389 12.2902 8.54339 12.7666C8.67289 13.2429 8.95149 13.6652 9.33839 13.9718C9.7253 14.2783 10.2002 14.4529 10.6935 14.47C11.1868 14.4871 11.6727 14.3459 12.0799 14.0669C12.4871 13.7879 12.7943 13.3859 12.9565 12.9197C13.1187 12.4535 13.1274 11.9476 12.9813 11.4761C12.8351 11.0046 12.5419 10.5923 12.1445 10.2995C11.7471 10.0067 11.2664 9.84883 10.7728 9.84902ZM10.7728 2.45319C11.047 2.45319 11.3152 2.53452 11.5432 2.68689C11.7712 2.83926 11.949 3.05584 12.0539 3.30923C12.1589 3.56262 12.1864 3.84144 12.1329 4.11044C12.0793 4.37944 11.9473 4.62653 11.7533 4.82046C11.5594 5.0144 11.3123 5.14647 11.0433 5.19998C10.7743 5.25348 10.4955 5.22602 10.2421 5.12107C9.98871 5.01611 9.77214 4.83837 9.61976 4.61032C9.46739 4.38228 9.38606 4.11417 9.38606 3.8399C9.38606 3.47212 9.53216 3.11941 9.79222 2.85935C10.0523 2.59929 10.405 2.45319 10.7728 2.45319ZM4.30142 9.38678C4.02716 9.38678 3.75905 9.30545 3.531 9.15307C3.30296 9.0007 3.12522 8.78412 3.02026 8.53073C2.91531 8.27735 2.88784 7.99852 2.94135 7.72953C2.99486 7.46053 3.12693 7.21344 3.32087 7.0195C3.5148 6.82557 3.76189 6.69349 4.03089 6.63999C4.29989 6.58648 4.57871 6.61394 4.8321 6.7189C5.08549 6.82386 5.30206 7.0016 5.45444 7.22964C5.60681 7.45769 5.68814 7.72579 5.68814 8.00006C5.68814 8.36784 5.54204 8.72056 5.28198 8.98062C5.02192 9.24068 4.6692 9.38678 4.30142 9.38678ZM10.7728 13.5469C10.4985 13.5469 10.2304 13.4656 10.0024 13.3132C9.77431 13.1609 9.59657 12.9443 9.49162 12.6909C9.38666 12.4375 9.3592 12.1587 9.4127 11.8897C9.46621 11.6207 9.59828 11.3736 9.79222 11.1797C9.98616 10.9857 10.2332 10.8536 10.5022 10.8001C10.7712 10.7466 11.0501 10.7741 11.3035 10.8791C11.5568 10.984 11.7734 11.1618 11.9258 11.3898C12.0782 11.6178 12.1595 11.8859 12.1595 12.1602C12.1595 12.528 12.0134 12.8807 11.7533 13.1408C11.4933 13.4008 11.1406 13.5469 10.7728 13.5469Z" fill="white"/>
</g>
<defs>
<clipPath id="clip0_1_503">
<rect width="16" height="16" fill="white"/>
</clipPath>
</defs>
</svg>
