<svg width="15" height="19" viewBox="0 0 15 19" fill="none" xmlns="http://www.w3.org/2000/svg">
<path fill-rule="evenodd" clip-rule="evenodd" d="M1.21373 0.790527H5.63011C5.46997 4.19974 5.67646 4.88242 3.63262 8.41384C1.87956 11.3637 0.96931 12.5942 1.15052 12.9651C1.45815 13.614 2.94572 13.0409 3.41349 12.2065C3.88126 11.5323 3.8644 11.0477 4.4628 10.5883C4.61171 10.55 4.76744 10.5463 4.91797 10.5778C5.0685 10.6092 5.20978 10.6748 5.33091 10.7695C6.80163 11.8441 5.01906 16.4164 5.84924 17.9714C5.88998 18.0447 5.94546 18.1088 6.01219 18.1595C6.07892 18.2103 6.15544 18.2467 6.23694 18.2664C6.7047 18.2664 6.78056 18.0051 6.92384 17.1623C7.12612 16.0034 7.30311 13.6604 7.66973 12.9061C7.94365 12.4425 8.26392 12.9524 8.32292 13.1547C8.74433 14.7898 8.57577 18.317 9.73465 18.2748C9.91585 18.2748 10.0844 18.0936 10.1097 17.7607C10.2361 16.4965 9.77257 13.8374 9.71358 12.8934C9.6925 12.472 10.0212 12.4215 10.1729 12.5605C10.7713 13.3022 10.9146 13.5888 11.4961 14.3389C12.0777 15.089 12.4443 16.0245 13.1186 15.8012C13.8982 15.5736 11.7153 12.4299 11.2686 11.3721C11.2264 11.271 11.2686 11.1867 11.3992 11.2584C12.4654 11.8357 13.2703 13.3191 13.8097 13.0156C14.2774 12.5942 11.8881 10.1332 11.3613 9.28195C10.8809 8.51498 9.90742 5.72524 9.87792 4.64643C9.86378 3.36473 9.91864 2.08319 10.0423 0.807384H13.0385C13.36 0.808494 13.6681 0.936719 13.8955 1.16408C14.1228 1.39145 14.2511 1.6995 14.2522 2.02105V17.6132C14.2522 17.9351 14.1243 18.2438 13.8967 18.4714C13.6691 18.699 13.3604 18.8269 13.0385 18.8269H1.21373C0.891845 18.8269 0.583145 18.699 0.355539 18.4714C0.127933 18.2438 6.5698e-05 17.9351 6.5698e-05 17.6132V2.02105C-0.00160287 1.8604 0.0285269 1.70102 0.0887198 1.55208C0.148913 1.40313 0.237979 1.26756 0.350789 1.15319C0.463599 1.03881 0.597923 0.947883 0.746025 0.885641C0.894127 0.8234 1.05308 0.791075 1.21373 0.790527Z" fill="white"/>
<path fill-rule="evenodd" clip-rule="evenodd" d="M5.81019 16.3591C5.62898 17.143 5.53206 17.3832 5.08115 17.3579C5.00085 17.3337 4.92644 17.2931 4.86262 17.2387C4.79879 17.1843 4.74693 17.1173 4.71031 17.0418C3.96863 15.4489 6.33274 10.923 4.59653 9.8315L4.64288 9.79779C4.79179 9.75943 4.94753 9.75581 5.09805 9.78723C5.24858 9.81866 5.38986 9.88427 5.51099 9.979C6.77522 10.9019 5.63741 14.4038 5.81862 16.3591H5.81019ZM1.30953 11.9807C1.39802 11.4497 2.28299 10.1939 3.80849 7.62331C5.65427 4.87993 5.77648 3.83062 5.80598 0H5.25814C5.0053 3.19429 4.99687 4.58073 2.99938 7.3789C1.10304 10.2571 0.129579 11.4076 0.285501 11.7911C0.441422 12.1745 0.845977 12.1282 1.30953 11.9807ZM12.38 11.0704C12.8351 11.7489 13.1385 12.3347 12.9278 12.5159C12.8376 12.5369 12.7435 12.534 12.6548 12.5073C12.5661 12.4807 12.4859 12.4314 12.4221 12.3642C12.0007 11.652 11.6088 10.9651 11.4444 10.569C11.4023 10.4678 11.4444 10.3836 11.5751 10.4552C11.8682 10.6239 12.1387 10.8293 12.38 11.0662V11.0704ZM12.1145 14.2142C11.9712 13.9993 11.8279 13.7633 11.672 13.5399C11.0905 12.7898 10.9472 12.5032 10.3488 11.7616C10.1971 11.6225 9.86837 11.6773 9.88944 12.0945C9.88944 12.263 9.92316 12.4864 9.95265 12.7477C10.1507 13.0342 10.3193 13.3419 10.5468 13.7085C11.0483 14.5218 11.5962 15.6933 12.0892 15.2551C12.2999 15.0907 12.2704 14.703 12.1187 14.21L12.1145 14.2142ZM9.16462 16.6415C9.15167 16.8384 9.12492 17.0341 9.08455 17.2273C9.06524 17.3035 9.02366 17.3723 8.96513 17.4248C8.90659 17.4773 8.83373 17.5113 8.75585 17.5222C7.68125 17.5728 7.91303 14.8041 7.57169 13.1143C7.62435 12.7701 7.71771 12.4335 7.84982 12.1113C8.12373 11.6478 8.44401 12.1577 8.503 12.36C8.80221 13.4851 8.80642 15.5037 9.15619 16.6457L9.16462 16.6415Z" fill="white"/>
</svg>
