<svg width="30" height="30" viewBox="0 0 30 30" fill="none" xmlns="http://www.w3.org/2000/svg">
<g clip-path="url(#clip0_1_1387)">
<path d="M28.2505 6.9375V14.4375C28.2507 14.623 28.1958 14.8044 28.0928 14.9587C27.9898 15.113 27.8433 15.2333 27.6719 15.3043C27.5005 15.3754 27.3119 15.3939 27.1299 15.3577C26.948 15.3214 26.7809 15.232 26.6497 15.1008L23.563 12.0129L16.7263 18.8508C16.6392 18.9379 16.5358 19.0071 16.422 19.0543C16.3082 19.1015 16.1862 19.1257 16.063 19.1257C15.9398 19.1257 15.8178 19.1015 15.704 19.0543C15.5902 19.0071 15.4868 18.9379 15.3997 18.8508L11.3755 14.8254L3.6013 22.6008C3.42539 22.7767 3.1868 22.8755 2.93802 22.8755C2.68924 22.8755 2.45065 22.7767 2.27474 22.6008C2.09883 22.4249 2 22.1863 2 21.9375C2 21.6887 2.09883 21.4501 2.27474 21.2742L10.7122 12.8367C10.7993 12.7496 10.9027 12.6804 11.0165 12.6332C11.1303 12.586 11.2523 12.5618 11.3755 12.5618C11.4987 12.5618 11.6207 12.586 11.7345 12.6332C11.8483 12.6804 11.9517 12.7496 12.0388 12.8367L16.063 16.8621L22.2376 10.6875L19.1497 7.60078C19.0185 7.46967 18.9291 7.30255 18.8928 7.1206C18.8566 6.93865 18.8752 6.75003 18.9462 6.57863C19.0172 6.40724 19.1375 6.26077 19.2918 6.15776C19.4461 6.05476 19.6275 5.99985 19.813 6H27.313C27.5617 6 27.8001 6.09877 27.9759 6.27459C28.1518 6.4504 28.2505 6.68886 28.2505 6.9375Z" fill="white"/>
</g>
<defs>
<clipPath id="clip0_1_1387">
<rect width="30" height="30" fill="white"/>
</clipPath>
</defs>
</svg>
