<svg width="16" height="16" viewBox="0 0 16 16" fill="none" xmlns="http://www.w3.org/2000/svg">
<path d="M14.0018 7.66822H12.6685C12.4917 7.66822 12.3221 7.73845 12.1971 7.86348C12.0721 7.9885 12.0018 8.15807 12.0018 8.33488C12.0018 8.51169 12.0721 8.68126 12.1971 8.80629C12.3221 8.93131 12.4917 9.00155 12.6685 9.00155V10.3349H11.8778C11.9566 10.1213 11.9983 9.89584 12.0012 9.66822C12.0011 9.22796 11.8559 8.80002 11.5878 8.45075C11.3198 8.10148 10.9441 7.8504 10.5188 7.73645C10.0936 7.62251 9.64258 7.65206 9.23584 7.82052C8.8291 7.98899 8.4893 8.28696 8.26916 8.66822C8.22469 8.74406 8.19567 8.82796 8.18376 8.91507C8.17185 9.00218 8.17729 9.09078 8.19976 9.17578C8.22223 9.26078 8.26129 9.3405 8.3147 9.41034C8.3681 9.48018 8.4348 9.53876 8.51094 9.58273C8.58708 9.62669 8.67116 9.65515 8.75835 9.66648C8.84554 9.67782 8.9341 9.67179 9.01895 9.64876C9.1038 9.62572 9.18325 9.58613 9.25274 9.53226C9.32223 9.47839 9.38037 9.41131 9.42382 9.33488C9.48233 9.23354 9.56649 9.14938 9.66783 9.09087C9.76918 9.03236 9.88414 9.00155 10.0012 9.00155C10.178 9.00155 10.3475 9.07179 10.4726 9.19681C10.5976 9.32184 10.6678 9.49141 10.6678 9.66822C10.6678 9.84503 10.5976 10.0146 10.4726 10.1396C10.3475 10.2646 10.178 10.3349 10.0012 10.3349C9.82435 10.3349 9.65478 10.4051 9.52975 10.5301C9.40473 10.6552 9.33449 10.8247 9.33449 11.0015C9.33449 11.1784 9.40473 11.3479 9.52975 11.473C9.65478 11.598 9.82435 11.6682 10.0012 11.6682C10.178 11.6682 10.3475 11.7385 10.4726 11.8635C10.5976 11.9885 10.6678 12.1581 10.6678 12.3349C10.6678 12.5117 10.5976 12.6813 10.4726 12.8063C10.3475 12.9313 10.178 13.0016 10.0012 13.0016C9.88414 13.0015 9.76918 12.9707 9.66783 12.9122C9.56649 12.8537 9.48233 12.7696 9.42382 12.6682C9.38037 12.5918 9.32223 12.5247 9.25274 12.4708C9.18325 12.417 9.1038 12.3774 9.01895 12.3543C8.9341 12.3313 8.84554 12.3253 8.75835 12.3366C8.67116 12.3479 8.58708 12.3764 8.51094 12.4204C8.4348 12.4643 8.3681 12.5229 8.3147 12.5928C8.26129 12.6626 8.22223 12.7423 8.19976 12.8273C8.17729 12.9123 8.17185 13.0009 8.18376 13.088C8.19567 13.1751 8.22469 13.259 8.26916 13.3349C8.4893 13.7161 8.8291 14.0141 9.23584 14.1826C9.64258 14.351 10.0936 14.3806 10.5188 14.2666C10.9441 14.1527 11.3198 13.9016 11.5878 13.5524C11.8559 13.2031 12.0011 12.7751 12.0012 12.3349C11.9983 12.1073 11.9566 11.8818 11.8778 11.6682H12.6678V13.6682C12.6678 13.845 12.7381 14.0146 12.8631 14.1396C12.9881 14.2646 13.1577 14.3349 13.3345 14.3349C13.5113 14.3349 13.6809 14.2646 13.8059 14.1396C13.9309 14.0146 14.0012 13.845 14.0012 13.6682V9.00155C14.178 9.00155 14.3475 8.93131 14.4726 8.80629C14.5976 8.68126 14.6678 8.51169 14.6678 8.33488C14.6678 8.15807 14.5976 7.9885 14.4726 7.86348C14.3475 7.73845 14.1786 7.66822 14.0018 7.66822ZM6.02116 7.16355C6.04192 7.24901 6.07939 7.32952 6.1314 7.40044C6.18341 7.47136 6.24895 7.53129 6.32422 7.57677C6.3995 7.62225 6.48303 7.65239 6.57 7.66545C6.65697 7.6785 6.74567 7.67422 6.83099 7.65285C6.9163 7.63148 6.99654 7.59344 7.06708 7.54092C7.13763 7.4884 7.19709 7.42244 7.24203 7.34684C7.28697 7.27125 7.31651 7.1875 7.32895 7.10044C7.34138 7.01337 7.33647 6.92471 7.31449 6.83955L6.14316 2.15288C6.06122 1.82367 5.8715 1.53134 5.60421 1.32242C5.33691 1.11349 5.00741 1 4.66816 1C4.3289 1 3.9994 1.11349 3.73211 1.32242C3.46481 1.53134 3.2751 1.82367 3.19316 2.15288L2.02116 6.83955C1.99918 6.92471 1.99426 7.01337 2.0067 7.10044C2.01913 7.1875 2.04868 7.27125 2.09362 7.34684C2.13856 7.42244 2.19802 7.4884 2.26856 7.54092C2.33911 7.59344 2.41935 7.63148 2.50466 7.65285C2.58997 7.67422 2.67867 7.6785 2.76565 7.66545C2.85262 7.65239 2.93615 7.62225 3.01143 7.57677C3.0867 7.53129 3.15223 7.47136 3.20425 7.40044C3.25626 7.32952 3.29373 7.24901 3.31449 7.16355L3.68782 5.66822H5.64782L6.02116 7.16355ZM4.02182 4.33488L4.48649 2.47688C4.5005 2.43996 4.52542 2.40817 4.55793 2.38574C4.59043 2.3633 4.62899 2.35129 4.66849 2.35129C4.70799 2.35129 4.74655 2.3633 4.77905 2.38574C4.81156 2.40817 4.83648 2.43996 4.85049 2.47688L5.31516 4.33488H4.02182ZM9.33516 4.33488H10.0018C10.1786 4.33488 10.3482 4.40512 10.4732 4.53015C10.5983 4.65517 10.6685 4.82474 10.6685 5.00155V5.66822C10.6685 5.84503 10.7387 6.0146 10.8638 6.13962C10.9888 6.26465 11.1583 6.33488 11.3352 6.33488C11.512 6.33488 11.6815 6.26465 11.8066 6.13962C11.9316 6.0146 12.0018 5.84503 12.0018 5.66822V5.00155C12.0013 4.47128 11.7904 3.96288 11.4155 3.58792C11.0405 3.21296 10.5321 3.00208 10.0018 3.00155H9.33516C9.15835 3.00155 8.98878 3.07179 8.86375 3.19681C8.73873 3.32184 8.66849 3.49141 8.66849 3.66822C8.66849 3.84503 8.73873 4.0146 8.86375 4.13962C8.98878 4.26464 9.15835 4.33488 9.33516 4.33488ZM6.66849 10.3349H6.00182C5.82501 10.3349 5.65544 10.2646 5.53042 10.1396C5.40539 10.0146 5.33516 9.84503 5.33516 9.66822V9.00155C5.33516 8.82474 5.26492 8.65517 5.13989 8.53015C5.01487 8.40512 4.8453 8.33488 4.66849 8.33488C4.49168 8.33488 4.32211 8.40512 4.19709 8.53015C4.07206 8.65517 4.00182 8.82474 4.00182 9.00155V9.66822C4.00235 10.1985 4.21324 10.7069 4.58819 11.0818C4.96315 11.4568 5.47155 11.6677 6.00182 11.6682H6.66849C6.8453 11.6682 7.01487 11.598 7.13989 11.473C7.26492 11.3479 7.33516 11.1784 7.33516 11.0015C7.33516 10.8247 7.26492 10.6552 7.13989 10.5301C7.01487 10.4051 6.8453 10.3349 6.66849 10.3349Z" fill="white"/>
</svg>
