<svg width="40" height="40" viewBox="0 0 40 40" fill="none" xmlns="http://www.w3.org/2000/svg">
<g clip-path="url(#clip0_156_3735)">
<path d="M23.75 17.5C23.75 17.8315 23.6183 18.1495 23.3839 18.3839C23.1495 18.6183 22.8315 18.75 22.5 18.75H17.5C17.1685 18.75 16.8505 18.6183 16.6161 18.3839C16.3817 18.1495 16.25 17.8315 16.25 17.5C16.25 17.1685 16.3817 16.8505 16.6161 16.6161C16.8505 16.3817 17.1685 16.25 17.5 16.25H22.5C22.8315 16.25 23.1495 16.3817 23.3839 16.6161C23.6183 16.8505 23.75 17.1685 23.75 17.5ZM36.25 11.25V31.25C36.25 31.913 35.9866 32.5489 35.5178 33.0178C35.0489 33.4866 34.413 33.75 33.75 33.75H6.25C5.58696 33.75 4.95107 33.4866 4.48223 33.0178C4.01339 32.5489 3.75 31.913 3.75 31.25V11.25C3.75 10.587 4.01339 9.95107 4.48223 9.48223C4.95107 9.01339 5.58696 8.75 6.25 8.75H12.5V7.5C12.5 6.50544 12.8951 5.55161 13.5983 4.84835C14.3016 4.14509 15.2554 3.75 16.25 3.75H23.75C24.7446 3.75 25.6984 4.14509 26.4017 4.84835C27.1049 5.55161 27.5 6.50544 27.5 7.5V8.75H33.75C34.413 8.75 35.0489 9.01339 35.5178 9.48223C35.9866 9.95107 36.25 10.587 36.25 11.25ZM15 8.75H25V7.5C25 7.16848 24.8683 6.85054 24.6339 6.61612C24.3995 6.3817 24.0815 6.25 23.75 6.25H16.25C15.9185 6.25 15.6005 6.3817 15.3661 6.61612C15.1317 6.85054 15 7.16848 15 7.5V8.75ZM33.75 17.7516V11.25H6.25V17.7516C10.4691 20.0481 15.1964 21.2509 20 21.25C24.8036 21.2509 29.5309 20.0481 33.75 17.7516Z" fill="white"/>
</g>
<defs>
<clipPath id="clip0_156_3735">
<rect width="40" height="40" fill="white"/>
</clipPath>
</defs>
</svg>
