<svg width="40" height="40" viewBox="0 0 40 40" fill="none" xmlns="http://www.w3.org/2000/svg">
<g clip-path="url(#clip0_138_1595)">
<path d="M38.75 32.5H36.25V15C36.5815 15 36.8995 14.8683 37.1339 14.6339C37.3683 14.3995 37.5 14.0815 37.5 13.75C37.5 13.4185 37.3683 13.1005 37.1339 12.8661C36.8995 12.6317 36.5815 12.5 36.25 12.5H28.75V7.5C29.0815 7.5 29.3995 7.3683 29.6339 7.13388C29.8683 6.89946 30 6.58152 30 6.25C30 5.91848 29.8683 5.60054 29.6339 5.36612C29.3995 5.1317 29.0815 5 28.75 5H6.25C5.91848 5 5.60054 5.1317 5.36612 5.36612C5.1317 5.60054 5 5.91848 5 6.25C5 6.58152 5.1317 6.89946 5.36612 7.13388C5.60054 7.3683 5.91848 7.5 6.25 7.5V32.5H3.75C3.41848 32.5 3.10054 32.6317 2.86612 32.8661C2.6317 33.1005 2.5 33.4185 2.5 33.75C2.5 34.0815 2.6317 34.3995 2.86612 34.6339C3.10054 34.8683 3.41848 35 3.75 35H38.75C39.0815 35 39.3995 34.8683 39.6339 34.6339C39.8683 34.3995 40 34.0815 40 33.75C40 33.4185 39.8683 33.1005 39.6339 32.8661C39.3995 32.6317 39.0815 32.5 38.75 32.5ZM12.5 11.25H15C15.3315 11.25 15.6495 11.3817 15.8839 11.6161C16.1183 11.8505 16.25 12.1685 16.25 12.5C16.25 12.8315 16.1183 13.1495 15.8839 13.3839C15.6495 13.6183 15.3315 13.75 15 13.75H12.5C12.1685 13.75 11.8505 13.6183 11.6161 13.3839C11.3817 13.1495 11.25 12.8315 11.25 12.5C11.25 12.1685 11.3817 11.8505 11.6161 11.6161C11.8505 11.3817 12.1685 11.25 12.5 11.25ZM11.25 18.75C11.25 18.4185 11.3817 18.1005 11.6161 17.8661C11.8505 17.6317 12.1685 17.5 12.5 17.5H15C15.3315 17.5 15.6495 17.6317 15.8839 17.8661C16.1183 18.1005 16.25 18.4185 16.25 18.75C16.25 19.0815 16.1183 19.3995 15.8839 19.6339C15.6495 19.8683 15.3315 20 15 20H12.5C12.1685 20 11.8505 19.8683 11.6161 19.6339C11.3817 19.3995 11.25 19.0815 11.25 18.75ZM21.25 32.5H13.75V25H21.25V32.5ZM22.5 20H20C19.6685 20 19.3505 19.8683 19.1161 19.6339C18.8817 19.3995 18.75 19.0815 18.75 18.75C18.75 18.4185 18.8817 18.1005 19.1161 17.8661C19.3505 17.6317 19.6685 17.5 20 17.5H22.5C22.8315 17.5 23.1495 17.6317 23.3839 17.8661C23.6183 18.1005 23.75 18.4185 23.75 18.75C23.75 19.0815 23.6183 19.3995 23.3839 19.6339C23.1495 19.8683 22.8315 20 22.5 20ZM22.5 13.75H20C19.6685 13.75 19.3505 13.6183 19.1161 13.3839C18.8817 13.1495 18.75 12.8315 18.75 12.5C18.75 12.1685 18.8817 11.8505 19.1161 11.6161C19.3505 11.3817 19.6685 11.25 20 11.25H22.5C22.8315 11.25 23.1495 11.3817 23.3839 11.6161C23.6183 11.8505 23.75 12.1685 23.75 12.5C23.75 12.8315 23.6183 13.1495 23.3839 13.3839C23.1495 13.6183 22.8315 13.75 22.5 13.75ZM33.75 32.5H28.75V15H33.75V32.5Z" fill="white"/>
</g>
<defs>
<clipPath id="clip0_138_1595">
<rect width="40" height="40" fill="white"/>
</clipPath>
</defs>
</svg>
