<svg width="40" height="40" viewBox="0 0 40 40" fill="none" xmlns="http://www.w3.org/2000/svg">
<g clip-path="url(#clip0_138_1312)">
<path d="M36.25 18.75H34.9469C34.8007 16.9675 34.3338 15.226 33.5687 13.6094L34.6984 12.9578C34.9856 12.7921 35.1952 12.519 35.281 12.1987C35.3669 11.8784 35.322 11.5372 35.1562 11.25C34.9905 10.9628 34.7174 10.7533 34.3972 10.6674C34.0769 10.5815 33.7356 10.6264 33.4484 10.7922L32.3156 11.4469C31.2931 9.98065 30.0194 8.70685 28.5531 7.68437L29.2078 6.55156C29.3736 6.26438 29.4185 5.92312 29.3326 5.60284C29.2467 5.28256 29.0372 5.00951 28.75 4.84375C28.4628 4.67799 28.1216 4.6331 27.8013 4.71896C27.481 4.80481 27.2079 5.01438 27.0422 5.30156L26.3906 6.43125C24.774 5.66615 23.0325 5.19929 21.25 5.05312V3.75C21.25 3.41848 21.1183 3.10054 20.8839 2.86612C20.6495 2.6317 20.3315 2.5 20 2.5C19.6685 2.5 19.3505 2.6317 19.1161 2.86612C18.8817 3.10054 18.75 3.41848 18.75 3.75V5.05312C16.9675 5.19929 15.226 5.66615 13.6094 6.43125L12.9578 5.30156C12.7921 5.01438 12.519 4.80481 12.1987 4.71896C11.8784 4.6331 11.5372 4.67799 11.25 4.84375C10.9628 5.00951 10.7533 5.28256 10.6674 5.60284C10.5815 5.92312 10.6264 6.26438 10.7922 6.55156L11.4469 7.68437C9.98065 8.70685 8.70685 9.98065 7.68437 11.4469L6.55156 10.7922C6.40937 10.7101 6.25239 10.6568 6.08961 10.6354C5.92683 10.614 5.76143 10.6249 5.60284 10.6674C5.28256 10.7533 5.00951 10.9628 4.84375 11.25C4.67799 11.5372 4.6331 11.8784 4.71896 12.1987C4.80481 12.519 5.01438 12.7921 5.30156 12.9578L6.43125 13.6094C5.66615 15.226 5.19929 16.9675 5.05312 18.75H3.75C3.41848 18.75 3.10054 18.8817 2.86612 19.1161C2.6317 19.3505 2.5 19.6685 2.5 20C2.5 20.3315 2.6317 20.6495 2.86612 20.8839C3.10054 21.1183 3.41848 21.25 3.75 21.25H5.05312C5.19929 23.0325 5.66615 24.774 6.43125 26.3906L5.30156 27.0422C5.06312 27.1797 4.87674 27.3921 4.77134 27.6464C4.66594 27.9007 4.64742 28.1826 4.71866 28.4485C4.78989 28.7144 4.9469 28.9493 5.1653 29.1168C5.38371 29.2844 5.6513 29.3751 5.92656 29.375C6.14604 29.3757 6.36174 29.318 6.55156 29.2078L7.68437 28.5531C8.70685 30.0194 9.98065 31.2931 11.4469 32.3156L10.7922 33.4484C10.6264 33.7356 10.5815 34.0769 10.6674 34.3972C10.7533 34.7174 10.9628 34.9905 11.25 35.1562C11.5372 35.322 11.8784 35.3669 12.1987 35.281C12.519 35.1952 12.7921 34.9856 12.9578 34.6984L13.6094 33.5687C15.226 34.3338 16.9675 34.8007 18.75 34.9469V36.25C18.75 36.5815 18.8817 36.8995 19.1161 37.1339C19.3505 37.3683 19.6685 37.5 20 37.5C20.3315 37.5 20.6495 37.3683 20.8839 37.1339C21.1183 36.8995 21.25 36.5815 21.25 36.25V34.9469C23.0325 34.8007 24.774 34.3338 26.3906 33.5687L27.0422 34.6984C27.2079 34.9856 27.481 35.1952 27.8013 35.281C28.1216 35.3669 28.4628 35.322 28.75 35.1562C29.0372 34.9905 29.2467 34.7174 29.3326 34.3972C29.4185 34.0769 29.3736 33.7356 29.2078 33.4484L28.5531 32.3156C30.0194 31.2931 31.2931 30.0194 32.3156 28.5531L33.4484 29.2078C33.5906 29.2899 33.7476 29.3432 33.9104 29.3646C34.0732 29.3861 34.2386 29.3752 34.3972 29.3327C34.5558 29.2902 34.7044 29.2168 34.8347 29.1169C34.9649 29.0169 35.0742 28.8922 35.1562 28.75C35.3222 28.463 35.3674 28.1219 35.2818 27.8016C35.1962 27.4813 34.987 27.2082 34.7 27.0422L33.5703 26.3906C34.3354 24.774 34.8023 23.0325 34.9484 21.25H36.25C36.5815 21.25 36.8995 21.1183 37.1339 20.8839C37.3683 20.6495 37.5 20.3315 37.5 20C37.5 19.6685 37.3683 19.3505 37.1339 19.1161C36.8995 18.8817 36.5815 18.75 36.25 18.75ZM11.25 20C11.2494 18.6758 11.5498 17.3688 12.1285 16.1777C12.7072 14.9867 13.5492 13.9428 14.5906 13.125L18.5562 20L14.5906 26.875C13.5492 26.0572 12.7072 25.0133 12.1285 23.8223C11.5498 22.6312 11.2494 21.3242 11.25 20ZM20 28.75C18.8877 28.7512 17.7855 28.539 16.7531 28.125L20.7219 21.25H28.6594C28.356 23.3311 27.3144 25.2338 25.7247 26.6107C24.135 27.9876 22.1031 28.7469 20 28.75ZM20.7219 18.75L16.7531 11.875C17.9822 11.384 19.3067 11.1782 20.6269 11.2731C21.947 11.3681 23.2284 11.7613 24.3746 12.4231C25.5208 13.085 26.502 13.9982 27.2441 15.0941C27.9863 16.19 28.4702 17.44 28.6594 18.75H20.7219Z" fill="white"/>
</g>
<defs>
<clipPath id="clip0_138_1312">
<rect width="40" height="40" fill="white"/>
</clipPath>
</defs>
</svg>
