<svg width="210" height="192" viewBox="0 0 210 192" fill="none" xmlns="http://www.w3.org/2000/svg">
<path d="M2.03523 211.548C-2.91986 182.424 0.988918 147.995 15.7886 122.097C16.0481 121.643 16.4006 121.281 16.8617 121.041C18.166 121.696 22.3191 134.169 23.5512 136.894C32.6847 157.093 48.3917 172.225 63.9979 187.308C77.9549 200.797 86.6658 218.641 92.7066 236.891C95.7638 244.999 96.088 253.489 97.2802 261.889C98.5293 270.693 98.9066 278.912 98.6122 287.834C98.3384 290.144 100.062 298.387 96.2568 298.625C86.6861 299.216 71.8715 297.093 62.7908 293.89C46.9991 288.318 26.3367 272.55 19.1023 257.522C12.3254 248.418 5.87183 231.29 3.54685 220.118C3.00549 217.517 2.79879 214.261 2.10652 211.796L2.03523 211.548Z" fill="white"/>
<path d="M191.762 121.779C192.095 121.827 193.149 121.994 193.353 122.165C197.337 125.485 200.886 136.759 202.056 141.348C204.774 152.011 207.799 162.53 209.179 173.299C210.163 179.779 209.412 186.539 209.519 192.917C209.684 202.723 207.425 209.456 205.448 218.729C202.724 231.498 199.668 240.838 193.285 252.195C184.293 267.933 171.175 280.877 155.367 289.607C152.861 290.962 150.61 292.262 147.955 293.278C141.44 295.774 134.624 296.164 128.007 298.015C122.627 298.895 116.081 298.874 110.665 298.865C110.627 288.12 109.964 272.274 111.094 261.811C113.229 240.593 120.697 220.273 132.795 202.77C134.231 200.7 136.765 196.73 138.382 195.018C150.846 181.777 164.58 169.846 175.309 155.029C182.647 144.896 187.423 133.438 191.762 121.779Z" fill="white"/>
<path d="M106.76 -0.214844C108.011 0.679451 113.287 7.71485 114.59 9.36555C118.523 14.9665 123.175 23.2958 127.024 29.1866C129.006 32.2207 133.529 41.5716 134.982 45.216C139.995 57.7893 140.318 76.3055 135.397 88.9581C130.693 99.446 117.634 110.336 109.058 117.859C108.499 118.349 106.831 119.5 105.952 119.297C95.6642 115.272 85.7928 104.543 79.3789 95.5762C71.5939 84.6924 70.5276 69.6558 73.2442 56.9332C74.4691 51.1976 76.6987 45.2608 78.6192 39.7301C79.7836 36.7907 82.4418 33.848 83.7386 31.102C86.4794 25.3003 89.4242 21.5252 93.2387 16.5085C96.7565 11.8823 101.882 2.95529 106.76 -0.214844Z" fill="white"/>
<path d="M50.2176 72.9805C51.2962 75.0989 52.1015 77.5562 52.9876 79.8143C59.2873 95.8689 72.4644 106.347 83.2175 119.277C95.6334 134.207 101.202 156.756 101.587 175.956C101.594 180.452 99.6451 194.368 98.9164 198.783C98.486 200.725 97.0713 209.591 96.7784 210.339C92.8986 208.888 87.4615 196.381 84.8415 193.175C79.6645 186.841 76.2118 181.377 69.7084 176.344C65.6687 173.217 60.954 168.269 56.8973 164.96C47.5249 157.275 37.2559 147.253 34.6923 134.875C32.0189 121.748 33.5246 108.097 37.652 95.4391C38.3302 93.3588 43.0327 83.0643 44.0883 81.7813C45.6542 79.6602 46.0625 76.7295 48.0958 74.9109C48.8074 74.2743 49.5003 73.6164 50.2176 72.9805Z" fill="white"/>
<path d="M160.186 72.9805C160.387 73.043 160.349 73.0252 160.581 73.1334C164.598 75.0118 173.939 95.8377 175.725 101.056C177.858 107.289 178.421 113.736 178.444 120.287C178.481 131.076 176.427 137.689 170.691 146.759C167.797 151.336 164.702 155.285 160.773 159.028C156.514 163.085 151.754 166.654 147.404 170.616C140.566 176.77 134.217 183.452 128.412 190.602C125.417 194.262 122.064 198.019 120.023 202.264C119.079 203.828 115.125 210.613 113.937 210.791C113.073 209.985 112.656 208.518 112.493 207.333C109.489 185.158 108.912 160.036 116.788 138.755C125.418 115.435 148.858 101.98 159.177 79.5977C159.727 78.4057 160.016 74.5161 160.186 72.9805Z" fill="white"/>
</svg>
