<svg width="40" height="40" viewBox="0 0 40 40" fill="none" xmlns="http://www.w3.org/2000/svg">
<g clip-path="url(#clip0_138_1586)">
<path d="M36.5716 9.43685C37.2608 11.1249 37.4301 12.9739 37.0793 14.7377C36.7353 16.4712 35.892 18.1248 34.5506 19.4662C33.6013 20.4155 32.4897 21.1171 31.3024 21.5684C30.0753 22.0348 28.7697 22.2301 27.4766 22.1545C26.6043 22.1036 25.7871 22.2233 25.036 22.5094L24.9988 22.5232C24.267 22.808 23.5887 23.2564 22.9792 23.8659L14.3051 32.5401C13.4934 33.3518 12.4244 33.7576 11.3555 33.7576C10.2879 33.7576 9.21756 33.3518 8.40586 32.5401C7.59279 31.727 7.18696 30.6594 7.18696 29.5905C7.18696 28.5229 7.59279 27.4525 8.40586 26.6408L17.08 17.9667C17.6977 17.349 18.1517 16.6597 18.4365 15.91C18.7213 15.1588 18.841 14.3416 18.7901 13.4694C18.7144 12.1762 18.9098 10.8706 19.3762 9.6435C19.8274 8.45623 20.529 7.34601 21.4783 6.39534C22.8197 5.05398 24.4733 4.21203 26.2069 3.8667C27.9871 3.51314 29.8552 3.68785 31.556 4.39362C31.9687 4.56421 32.1627 5.03746 31.9921 5.44882C31.9494 5.55063 31.8903 5.6373 31.8174 5.71021L31.8187 5.71159L27.2772 10.2531C26.8095 10.7209 26.5742 11.3399 26.5742 11.9591C26.5742 12.5781 26.8081 13.1959 27.2772 13.665C27.745 14.1341 28.364 14.368 28.9832 14.368C29.6023 14.368 30.22 14.1341 30.6891 13.665L35.2306 9.12349C35.5471 8.80707 36.0575 8.80707 36.3739 9.12349C36.4647 9.21429 36.5294 9.3216 36.5679 9.43579L36.5716 9.43685ZM15.9793 13.1912C16.3232 13.4746 16.3727 13.9809 16.0907 14.3262C15.8087 14.6702 15.301 14.7197 14.9557 14.4377L13.3075 13.0812C13.053 12.8721 12.8425 12.6423 12.6706 12.385C12.4986 12.1264 12.3665 11.843 12.2702 11.5266L11.6841 9.59636C11.6195 9.3845 11.5218 9.20015 11.3925 9.04057C11.2632 8.88373 11.1008 8.75166 10.9041 8.6471L7.95997 7.06223C7.63942 6.89026 7.28999 6.83111 6.9584 6.87926C6.62822 6.92741 6.31319 7.08424 6.05454 7.34288L4.83838 8.56041C4.58112 8.81768 4.4229 9.13547 4.37476 9.46428C4.3266 9.79584 4.38438 10.1453 4.55773 10.4658L6.1426 13.41C6.24853 13.6053 6.3806 13.769 6.53744 13.897C6.69702 14.0277 6.88275 14.1254 7.09323 14.19L9.02343 14.7761C9.33985 14.8724 9.62187 15.0031 9.8819 15.1764C10.1392 15.3484 10.3689 15.5589 10.578 15.8134L12.4064 18.0366C12.6898 18.3806 12.6403 18.8882 12.2964 19.1716C11.9524 19.455 11.4447 19.4055 11.1613 19.0616L9.33297 16.8384C9.22566 16.709 9.1101 16.6017 8.9849 16.5178C8.85971 16.4339 8.71801 16.3692 8.55706 16.3197L6.62687 15.7322C6.20315 15.6029 5.83169 15.4089 5.51528 15.1489C5.1961 14.8875 4.93057 14.5629 4.72284 14.1749L3.13798 11.2308C2.79541 10.5952 2.67985 9.89909 2.77754 9.23045C2.87522 8.56185 3.18616 7.92624 3.69518 7.41585L4.91134 6.19832C5.42036 5.68929 6.05734 5.37838 6.72594 5.28068C7.39317 5.183 8.08931 5.29856 8.72629 5.63974L11.6704 7.22461C12.0584 7.43372 12.383 7.69788 12.6444 8.01704C12.9031 8.33346 13.0984 8.70491 13.2277 9.13004L13.8138 11.0602C13.862 11.2212 13.928 11.3629 14.0119 11.4881C14.0958 11.6146 14.2018 11.7288 14.3325 11.8361L15.9806 13.1926L15.9793 13.1912ZM20.7476 30.7047C20.4642 30.3608 20.5137 29.8531 20.859 29.5697C21.203 29.2863 21.7106 29.3372 21.994 29.6811L25.4403 33.8691C25.6563 34.1304 25.9026 34.3313 26.1736 34.4675C26.446 34.6051 26.7541 34.6821 27.094 34.6986C27.4338 34.7151 27.7475 34.667 28.0336 34.5569C28.3156 34.4482 28.5798 34.2721 28.8219 34.03L31.5294 31.3225C31.7715 31.0804 31.9476 30.8162 32.0563 30.5342C32.1664 30.2494 32.2145 29.9358 32.198 29.5946C32.1815 29.2548 32.1045 28.9466 31.9669 28.6742C31.8293 28.4018 31.6298 28.1555 31.3684 27.9395L29.0531 26.0341C28.7091 25.7507 28.6596 25.2444 28.9416 24.8991C29.225 24.5552 29.7313 24.5056 30.0766 24.7877L32.392 26.6931C32.8281 27.0522 33.1679 27.4745 33.4087 27.9519C33.6481 28.4279 33.7843 28.9521 33.8104 29.5161C33.8379 30.0802 33.754 30.6154 33.5628 31.112C33.3688 31.6128 33.073 32.0654 32.6754 32.463L29.9679 35.1704C29.5704 35.568 29.1177 35.8652 28.617 36.0578C28.1189 36.2504 27.5851 36.3329 27.0211 36.3054C26.457 36.2779 25.9329 36.1431 25.4569 35.9037C24.9795 35.6643 24.5571 35.3232 24.1981 34.887L20.7518 30.6991L20.7476 30.7047Z" fill="white"/>
</g>
<defs>
<clipPath id="clip0_138_1586">
<rect width="40" height="40" fill="white"/>
</clipPath>
</defs>
</svg>
