<svg width="193" height="192" viewBox="0 0 193 192" fill="none" xmlns="http://www.w3.org/2000/svg">
<g opacity="0.05" clip-path="url(#clip0_138_329)">
<path d="M11.672 212.037C6.71686 182.912 10.6256 148.483 25.4253 122.586C25.6848 122.132 26.0373 121.769 26.4984 121.529C27.8028 122.184 31.9558 134.657 33.188 137.382C42.3215 157.582 58.0284 172.713 73.6346 187.796C87.5916 201.286 96.3025 219.13 102.343 237.38C105.401 245.487 105.725 253.978 106.917 262.377C108.166 271.182 108.543 279.401 108.249 288.323C107.975 290.633 109.698 298.876 105.894 299.113C96.3228 299.705 81.5082 297.581 72.4275 294.379C56.6358 288.806 35.9735 273.038 28.739 258.01C21.9621 248.907 15.5085 231.778 13.1836 220.606C12.6422 218.005 12.4355 214.749 11.7432 212.285L11.672 212.037Z" fill="#0161AD"/>
<path d="M201.399 122.268C201.732 122.315 202.785 122.482 202.99 122.653C206.974 125.973 210.523 137.247 211.692 141.836C214.41 152.499 217.436 163.019 218.816 173.787C219.8 180.268 219.048 187.027 219.156 193.405C219.321 203.211 217.062 209.944 215.084 219.217C212.361 231.986 209.304 241.326 202.922 252.683C193.93 268.421 180.811 281.365 165.004 290.095C162.498 291.45 160.246 292.75 157.591 293.766C151.077 296.262 144.26 296.653 137.643 298.503C132.264 299.383 125.718 299.362 120.301 299.353C120.264 288.608 119.601 272.762 120.731 262.299C122.866 241.081 130.334 220.761 142.431 203.258C143.867 201.188 146.402 197.218 148.018 195.506C160.483 182.265 174.217 170.334 184.946 155.517C192.284 145.384 197.06 133.926 201.399 122.268Z" fill="#0161AD"/>
<path d="M116.397 0.273438C117.648 1.16773 122.924 8.20313 124.226 9.85383C128.16 15.4548 132.812 23.784 136.661 29.6749C138.643 32.709 143.166 42.0599 144.619 45.7043C149.631 58.2776 149.955 76.7937 145.034 89.4464C140.329 99.9343 127.271 110.825 118.694 118.347C118.136 118.837 116.468 119.989 115.589 119.785C105.301 115.761 95.4295 105.032 89.0156 96.0645C81.2306 85.1806 80.1643 70.1441 82.8809 57.4215C84.1059 51.6859 86.3354 45.7491 88.2559 40.2184C89.4204 37.279 92.0785 34.3362 93.3754 31.5903C96.1161 25.7886 99.0609 22.0135 102.875 16.9968C106.393 12.3706 111.518 3.44357 116.397 0.273438Z" fill="#0161AD"/>
<path d="M59.8544 73.4688C60.9329 75.5872 61.7382 78.0445 62.6243 80.3026C68.924 96.3572 82.1011 106.836 92.8542 119.765C105.27 134.695 110.838 157.244 111.224 176.445C111.231 180.94 109.282 194.857 108.553 199.271C108.123 201.213 106.708 210.08 106.415 210.827C102.535 209.377 97.0982 196.869 94.4782 193.664C89.3012 187.329 85.8485 181.866 79.3451 176.832C75.3054 173.705 70.5907 168.758 66.534 165.448C57.1616 157.763 46.8926 147.741 44.329 135.364C41.6557 122.236 43.1613 108.585 47.2887 95.9274C47.967 93.8471 52.6694 83.5526 53.725 82.2696C55.2909 80.1485 55.6992 77.2178 57.7325 75.3991C58.4441 74.7626 59.137 74.1047 59.8544 73.4688Z" fill="#0161AD"/>
<path d="M169.823 73.4688C170.023 73.5312 169.986 73.5135 170.217 73.6217C174.235 75.5001 183.576 96.326 185.361 101.545C187.494 107.777 188.058 114.224 188.081 120.775C188.118 131.564 186.064 138.177 180.328 147.247C177.433 151.824 174.339 155.773 170.41 159.516C166.151 163.573 161.391 167.142 157.041 171.104C150.203 177.258 143.853 183.94 138.049 191.09C135.054 194.751 131.701 198.508 129.66 202.752C128.715 204.316 124.762 211.101 123.574 211.28C122.71 210.473 122.292 209.006 122.13 207.821C119.126 185.647 118.549 160.524 126.424 139.243C135.055 115.923 158.495 102.468 168.814 80.086C169.364 78.894 169.653 75.0044 169.823 73.4688Z" fill="#0161AD"/>
</g>
<defs>
<clipPath id="clip0_138_329">
<rect width="193" height="192" fill="white"/>
</clipPath>
</defs>
</svg>
