<svg width="135" height="119" viewBox="0 0 135 119" fill="none" xmlns="http://www.w3.org/2000/svg">
<g clip-path="url(#clip0_491_694)">
<path d="M105.469 126.125H29.5312C28.4124 126.125 27.3393 125.681 26.5481 124.889C25.757 124.098 25.3125 123.025 25.3125 121.906V21.0938C25.3125 19.9749 25.757 18.9018 26.5481 18.1106C27.3393 17.3195 28.4124 16.875 29.5312 16.875H80.1562L109.688 46.4062V121.906C109.688 123.025 109.243 124.098 108.452 124.889C107.661 125.681 106.588 126.125 105.469 126.125Z" fill="url(#paint0_linear_491_694)" stroke="url(#paint1_linear_491_694)" stroke-width="6.1875" stroke-linecap="round" stroke-linejoin="round"/>
<path d="M80.1562 16.875V46.4062H109.688" fill="#5CB85D"/>
<path d="M50.625 65.7188H84.375" stroke="#5CB85D" stroke-width="8" stroke-linecap="round" stroke-linejoin="round"/>
<path d="M50.625 82.5938H84.375" stroke="#5CB85D" stroke-width="8" stroke-linecap="round" stroke-linejoin="round"/>
</g>
<defs>
<linearGradient id="paint0_linear_491_694" x1="79.8117" y1="86.3666" x2="79.8117" y2="175.716" gradientUnits="userSpaceOnUse">
<stop stop-color="white"/>
<stop offset="1" stop-color="white" stop-opacity="0"/>
</linearGradient>
<linearGradient id="paint1_linear_491_694" x1="65.68" y1="93.6887" x2="111.056" y2="93.6887" gradientUnits="userSpaceOnUse">
<stop stop-color="white"/>
<stop offset="1" stop-color="white" stop-opacity="0"/>
</linearGradient>
<clipPath id="clip0_491_694">
<rect width="135" height="135" fill="white"/>
</clipPath>
</defs>
</svg>
