<svg width="48" height="48" viewBox="0 0 48 48" fill="none" xmlns="http://www.w3.org/2000/svg">
<g clip-path="url(#clip0_1_875)">
<path d="M24 4.5C20.1433 4.5 16.3731 5.64366 13.1664 7.78634C9.95963 9.92903 7.46027 12.9745 5.98436 16.5377C4.50845 20.1008 4.12228 24.0216 4.8747 27.8043C5.62711 31.5869 7.4843 35.0615 10.2114 37.7886C12.9386 40.5157 16.4131 42.3729 20.1957 43.1253C23.9784 43.8777 27.8992 43.4916 31.4623 42.0156C35.0255 40.5397 38.071 38.0404 40.2137 34.8336C42.3564 31.6269 43.5 27.8567 43.5 24C43.4945 18.83 41.4383 13.8732 37.7826 10.2174C34.1268 6.56167 29.1701 4.50546 24 4.5ZM31.185 18H33C33.3978 18 33.7794 18.158 34.0607 18.4393C34.342 18.7206 34.5 19.1022 34.5 19.5C34.5 19.8978 34.342 20.2794 34.0607 20.5607C33.7794 20.842 33.3978 21 33 21H31.4644C31.2748 23.0485 30.3278 24.9525 28.8086 26.3396C27.2893 27.7267 25.3072 28.4971 23.25 28.5H20.8725L30.9206 36.3169C31.0837 36.435 31.2213 36.5847 31.3253 36.7571C31.4292 36.9295 31.4974 37.1211 31.5258 37.3204C31.5542 37.5197 31.5421 37.7227 31.4903 37.9173C31.4386 38.1118 31.3482 38.294 31.2246 38.4529C31.1009 38.6118 30.9466 38.7441 30.7707 38.8421C30.5948 38.9401 30.401 39.0016 30.2008 39.0231C30.0007 39.0446 29.7982 39.0256 29.6055 38.9672C29.4129 38.9088 29.2339 38.8122 29.0794 38.6831L15.5794 28.1831C15.333 27.9911 15.1528 27.727 15.0637 27.4277C14.9747 27.1283 14.9813 26.8086 15.0826 26.5132C15.184 26.2178 15.3751 25.9613 15.6292 25.7797C15.8832 25.5981 16.1877 25.5003 16.5 25.5H23.25C24.5124 25.4999 25.7324 25.0449 26.6866 24.2185C27.6408 23.392 28.2653 22.2494 28.4456 21H16.5C16.1022 21 15.7207 20.842 15.4393 20.5607C15.158 20.2794 15 19.8978 15 19.5C15 19.1022 15.158 18.7206 15.4393 18.4393C15.7207 18.158 16.1022 18 16.5 18H27.9919C27.5662 17.1026 26.8947 16.3444 26.0554 15.8134C25.216 15.2823 24.2432 15.0003 23.25 15H16.5C16.1022 15 15.7207 14.842 15.4393 14.5607C15.158 14.2794 15 13.8978 15 13.5C15 13.1022 15.158 12.7206 15.4393 12.4393C15.7207 12.158 16.1022 12 16.5 12H33C33.3978 12 33.7794 12.158 34.0607 12.4393C34.342 12.7206 34.5 13.1022 34.5 13.5C34.5 13.8978 34.342 14.2794 34.0607 14.5607C33.7794 14.842 33.3978 15 33 15H29.61C30.3375 15.8799 30.8739 16.9015 31.185 18Z" fill="white"/>
</g>
<defs>
<clipPath id="clip0_1_875">
<rect width="48" height="48" fill="white"/>
</clipPath>
</defs>
</svg>
