<svg width="48" height="48" viewBox="0 0 48 48" fill="none" xmlns="http://www.w3.org/2000/svg">
<g clip-path="url(#clip0_1_863)">
<path d="M37.5 9H25.5V3C25.5 2.60218 25.342 2.22064 25.0607 1.93934C24.7794 1.65804 24.3978 1.5 24 1.5C23.6022 1.5 23.2206 1.65804 22.9393 1.93934C22.658 2.22064 22.5 2.60218 22.5 3V9H10.5C8.9087 9 7.38258 9.63214 6.25736 10.7574C5.13214 11.8826 4.5 13.4087 4.5 15V36C4.5 37.5913 5.13214 39.1174 6.25736 40.2426C7.38258 41.3679 8.9087 42 10.5 42H37.5C39.0913 42 40.6174 41.3679 41.7426 40.2426C42.8679 39.1174 43.5 37.5913 43.5 36V15C43.5 13.4087 42.8679 11.8826 41.7426 10.7574C40.6174 9.63214 39.0913 9 37.5 9ZM32.25 18C32.695 18 33.13 18.132 33.5 18.3792C33.87 18.6264 34.1584 18.9778 34.3287 19.389C34.499 19.8001 34.5436 20.2525 34.4568 20.689C34.37 21.1254 34.1557 21.5263 33.841 21.841C33.5263 22.1557 33.1254 22.37 32.689 22.4568C32.2525 22.5436 31.8001 22.499 31.389 22.3287C30.9778 22.1584 30.6264 21.87 30.3792 21.5C30.132 21.13 30 20.695 30 20.25C30 19.6533 30.2371 19.081 30.659 18.659C31.081 18.2371 31.6533 18 32.25 18ZM18 34.5H15C14.2044 34.5 13.4413 34.1839 12.8787 33.6213C12.3161 33.0587 12 32.2956 12 31.5C12 30.7044 12.3161 29.9413 12.8787 29.3787C13.4413 28.8161 14.2044 28.5 15 28.5H18V34.5ZM15.75 22.5C15.305 22.5 14.87 22.368 14.5 22.1208C14.13 21.8736 13.8416 21.5222 13.6713 21.111C13.501 20.6999 13.4564 20.2475 13.5432 19.811C13.63 19.3746 13.8443 18.9737 14.159 18.659C14.4737 18.3443 14.8746 18.13 15.311 18.0432C15.7475 17.9564 16.1999 18.001 16.611 18.1713C17.0222 18.3416 17.3736 18.63 17.6208 19C17.868 19.37 18 19.805 18 20.25C18 20.8467 17.7629 21.419 17.341 21.841C16.919 22.2629 16.3467 22.5 15.75 22.5ZM27 34.5H21V28.5H27V34.5ZM33 34.5H30V28.5H33C33.7956 28.5 34.5587 28.8161 35.1213 29.3787C35.6839 29.9413 36 30.7044 36 31.5C36 32.2956 35.6839 33.0587 35.1213 33.6213C34.5587 34.1839 33.7956 34.5 33 34.5Z" fill="white"/>
</g>
<defs>
<clipPath id="clip0_1_863">
<rect width="48" height="48" fill="white"/>
</clipPath>
</defs>
</svg>
