<svg width="195" height="261" viewBox="0 0 195 261" fill="none" xmlns="http://www.w3.org/2000/svg">
<g opacity="0.05" clip-path="url(#clip0_1_669)">
<path d="M11.671 212.037C6.71588 182.912 10.6247 148.483 25.4243 122.586C25.6838 122.132 26.0364 121.769 26.4975 121.529C27.8018 122.184 31.9548 134.657 33.187 137.382C42.3205 157.582 58.0275 172.713 73.6336 187.796C87.5907 201.286 96.3015 219.13 102.342 237.38C105.4 245.487 105.724 253.978 106.916 262.377C108.165 271.182 108.542 279.401 108.248 288.323C107.974 290.633 109.697 298.876 105.893 299.113C96.3218 299.705 81.5072 297.581 72.4265 294.379C56.6348 288.806 35.9725 273.038 28.738 258.01C21.9611 248.907 15.5076 231.778 13.1826 220.606C12.6412 218.005 12.4345 214.749 11.7423 212.285L11.671 212.037Z" fill="#0161AD"/>
<path d="M201.397 122.268C201.73 122.315 202.784 122.482 202.988 122.653C206.972 125.973 210.521 137.247 211.691 141.836C214.409 152.499 217.435 163.019 218.814 173.787C219.798 180.268 219.047 187.027 219.154 193.405C219.319 203.211 217.061 209.945 215.083 219.217C212.359 231.986 209.303 241.327 202.92 252.683C193.928 268.421 180.81 281.365 165.002 290.095C162.496 291.45 160.245 292.75 157.59 293.766C151.075 296.262 144.259 296.653 137.642 298.503C132.262 299.383 125.716 299.362 120.3 299.353C120.262 288.608 119.6 272.762 120.73 262.299C122.864 241.081 130.332 220.761 142.43 203.258C143.866 201.188 146.4 197.218 148.017 195.506C160.482 182.265 174.215 170.334 184.945 155.517C192.283 145.384 197.058 133.926 201.397 122.268Z" fill="#0161AD"/>
<path d="M116.397 0.273438C117.648 1.16773 122.924 8.20313 124.226 9.85383C128.16 15.4548 132.812 23.784 136.661 29.6749C138.643 32.709 143.166 42.0599 144.619 45.7043C149.631 58.2776 149.955 76.7937 145.034 89.4464C140.329 99.9343 127.271 110.825 118.694 118.347C118.136 118.837 116.468 119.989 115.589 119.785C105.301 115.761 95.4295 105.032 89.0156 96.0645C81.2306 85.1806 80.1643 70.1441 82.8809 57.4215C84.1059 51.6859 86.3354 45.7491 88.2559 40.2184C89.4204 37.279 92.0785 34.3362 93.3754 31.5903C96.1161 25.7886 99.0609 22.0135 102.875 16.9968C106.393 12.3706 111.518 3.44357 116.397 0.273438Z" fill="#0161AD"/>
<path d="M59.8529 73.4688C60.9314 75.5872 61.7367 78.0445 62.6229 80.3026C68.9226 96.3572 82.0996 106.836 92.8527 119.765C105.269 134.695 110.837 157.244 111.222 176.445C111.229 180.94 109.28 194.857 108.552 199.271C108.121 201.213 106.707 210.08 106.414 210.827C102.534 209.377 97.0967 196.869 94.4768 193.664C89.2998 187.329 85.8471 181.866 79.3437 176.832C75.304 173.705 70.5893 168.758 66.5325 165.448C57.1601 157.763 46.8911 147.741 44.3275 135.364C41.6542 122.236 43.1598 108.585 47.2872 95.9274C47.9655 93.8471 52.668 83.5526 53.7235 82.2696C55.2894 80.1485 55.6977 77.2178 57.731 75.3991C58.4427 74.7626 59.1356 74.1047 59.8529 73.4688Z" fill="#0161AD"/>
<path d="M169.821 73.4688C170.022 73.5312 169.984 73.5135 170.216 73.6217C174.233 75.5001 183.574 96.326 185.36 101.545C187.493 107.777 188.057 114.224 188.079 120.775C188.116 131.564 186.062 138.177 180.326 147.247C177.432 151.824 174.337 155.773 170.409 159.516C166.15 163.573 161.39 167.142 157.039 171.104C150.202 177.258 143.852 183.94 138.047 191.09C135.052 194.751 131.699 198.508 129.659 202.752C128.714 204.316 124.76 211.101 123.573 211.28C122.709 210.473 122.291 209.006 122.129 207.821C119.124 185.647 118.548 160.524 126.423 139.243C135.053 115.923 158.493 102.468 168.812 80.086C169.362 78.894 169.651 75.0044 169.821 73.4688Z" fill="#0161AD"/>
</g>
<defs>
<clipPath id="clip0_1_669">
<rect width="224" height="261" fill="white"/>
</clipPath>
</defs>
</svg>
