<svg width="222" height="283" viewBox="0 0 222 283" fill="none" xmlns="http://www.w3.org/2000/svg">
<g opacity="0.05">
<path d="M166.665 17.9157C137.772 76.6377 109.397 235.1 117.844 294.851C118.242 297.665 120.917 299.542 123.597 298.595C170.657 281.966 205.439 130.747 169.791 18.2134C169.32 16.7273 167.353 16.517 166.665 17.9157Z" fill="#0871B8"/>
<path opacity="0.8" d="M274.94 211.111C192.026 245.652 72.8857 167.868 19.2475 120.853C18.0157 119.773 18.7791 117.812 20.4159 117.878C96.297 120.93 241.832 172.839 276.429 203.717C278.954 205.971 278.064 209.81 274.94 211.111Z" fill="#0871B8"/>
<ellipse cx="102.228" cy="93.5393" rx="21.9843" ry="24.9155" transform="rotate(-45.4981 102.228 93.5393)" fill="#0871B8"/>
</g>
</svg>
